{
 "accessors": [
  {
   "componentType": 5126,
   "type": "VEC3",
   "count": 12,
   "max": [
    2.001300096511841,
    8.65880012512207,
    -1.0677000284194946
   ],
   "min": [
    -1.9987000226974487,
    7.65880012512207,
    -1.0677000284194946
   ],
   "bufferView": 7
  },
  {
   "componentType": 5126,
   "type": "VEC3",
   "count": 12,
   "bufferView": 8
  },
  {
   "componentType": 5126,
   "type": "VEC2",
   "count": 12,
   "bufferView": 9
  },
  {
   "componentType": 5121,
   "type": "SCALAR",
   "count": 12,
   "bufferView": 10
  },
  {
   "componentType": 5126,
   "type": "VEC3",
   "count": 12,
   "max": [
    2.001300096511841,
    8.65880012512207,
    -1.0677000284194946
   ],
   "min": [
    -1.9987000226974487,
    7.65880012512207,
    -1.0677000284194946
   ],
   "bufferView": 11
  },
  {
   "componentType": 5126,
   "type": "VEC3",
   "count": 12,
   "bufferView": 12
  },
  {
   "componentType": 5126,
   "type": "VEC2",
   "count": 12,
   "bufferView": 13
  },
  {
   "componentType": 5121,
   "type": "SCALAR",
   "count": 12,
   "bufferView": 14
  },
  {
   "componentType": 5126,
   "type": "VEC3",
   "count": 4,
   "max": [
    -2,
    7.663700103759766,
    1.125
   ],
   "min": [
    -2,
    0.038700103759765625,
    -1.125
   ],
   "bufferView": 15
  },
  {
   "componentType": 5126,
   "type": "VEC3",
   "count": 4,
   "bufferView": 16
  },
  {
   "componentType": 5126,
   "type": "VEC2",
   "count": 4,
   "bufferView": 17
  },
  {
   "componentType": 5121,
   "type": "SCALAR",
   "count": 6,
   "bufferView": 18
  },
  {
   "componentType": 5126,
   "type": "VEC3",
   "count": 4,
   "max": [
    2,
    7.663700103759766,
    1.125
   ],
   "min": [
    2,
    0.038700103759765625,
    -1.125
   ],
   "bufferView": 19
  },
  {
   "componentType": 5126,
   "type": "VEC3",
   "count": 4,
   "bufferView": 20
  },
  {
   "componentType": 5126,
   "type": "VEC2",
   "count": 4,
   "bufferView": 21
  },
  {
   "componentType": 5121,
   "type": "SCALAR",
   "count": 6,
   "bufferView": 22
  },
  {
   "componentType": 5126,
   "type": "VEC3",
   "count": 8,
   "max": [
    2,
    7.663700103759766,
    -1.125
   ],
   "min": [
    -2,
    0.038700103759765625,
    -1.125
   ],
   "bufferView": 23
  },
  {
   "componentType": 5126,
   "type": "VEC3",
   "count": 8,
   "bufferView": 24
  },
  {
   "componentType": 5126,
   "type": "VEC2",
   "count": 8,
   "bufferView": 25
  },
  {
   "componentType": 5121,
   "type": "SCALAR",
   "count": 12,
   "bufferView": 26
  },
  {
   "componentType": 5126,
   "type": "VEC3",
   "count": 8,
   "max": [
    2,
    7.663700103759766,
    1.125
   ],
   "min": [
    -2,
    7.663700103759766,
    -1.125
   ],
   "bufferView": 27
  },
  {
   "componentType": 5126,
   "type": "VEC3",
   "count": 8,
   "bufferView": 28
  },
  {
   "componentType": 5126,
   "type": "VEC2",
   "count": 8,
   "bufferView": 29
  },
  {
   "componentType": 5121,
   "type": "SCALAR",
   "count": 12,
   "bufferView": 30
  },
  {
   "componentType": 5126,
   "type": "VEC3",
   "count": 4,
   "max": [
    3,
    -3.8125,
    1.125
   ],
   "min": [
    -3,
    -3.8125,
    -1.125
   ],
   "bufferView": 31
  },
  {
   "componentType": 5126,
   "type": "VEC3",
   "count": 4,
   "bufferView": 32
  },
  {
   "componentType": 5126,
   "type": "VEC2",
   "count": 4,
   "bufferView": 33
  },
  {
   "componentType": 5121,
   "type": "SCALAR",
   "count": 6,
   "bufferView": 34
  },
  {
   "componentType": 5126,
   "type": "VEC3",
   "count": 4,
   "max": [
    9.926300048828125,
    7.672100067138672,
    1.125
   ],
   "min": [
    3.926300048828125,
    7.672100067138672,
    -1.125
   ],
   "bufferView": 35
  },
  {
   "componentType": 5126,
   "type": "VEC3",
   "count": 4,
   "bufferView": 36
  },
  {
   "componentType": 5126,
   "type": "VEC2",
   "count": 4,
   "bufferView": 37
  },
  {
   "componentType": 5121,
   "type": "SCALAR",
   "count": 6,
   "bufferView": 38
  },
  {
   "componentType": 5126,
   "type": "VEC3",
   "count": 20,
   "max": [
    2,
    0.5,
    0.02500000037252903
   ],
   "min": [
    -2,
    -0.5,
    -0.02500000037252903
   ],
   "bufferView": 39
  },
  {
   "componentType": 5126,
   "type": "VEC3",
   "count": 20,
   "bufferView": 40
  },
  {
   "componentType": 5126,
   "type": "VEC2",
   "count": 20,
   "bufferView": 41
  },
  {
   "componentType": 5121,
   "type": "SCALAR",
   "count": 30,
   "bufferView": 42
  },
  {
   "componentType": 5126,
   "type": "VEC3",
   "count": 20,
   "max": [
    2,
    0.5,
    0.02500000037252903
   ],
   "min": [
    -2,
    -0.5,
    -0.02500000037252903
   ],
   "bufferView": 43
  },
  {
   "componentType": 5126,
   "type": "VEC3",
   "count": 20,
   "bufferView": 44
  },
  {
   "componentType": 5126,
   "type": "VEC2",
   "count": 20,
   "bufferView": 45
  },
  {
   "componentType": 5121,
   "type": "SCALAR",
   "count": 30,
   "bufferView": 46
  },
  {
   "componentType": 5126,
   "type": "VEC3",
   "count": 4,
   "max": [
    2,
    7.663700103759766,
    1.125
   ],
   "min": [
    -2,
    0.038700103759765625,
    1.125
   ],
   "bufferView": 47
  },
  {
   "componentType": 5126,
   "type": "VEC3",
   "count": 4,
   "bufferView": 48
  },
  {
   "componentType": 5126,
   "type": "VEC2",
   "count": 4,
   "bufferView": 49
  },
  {
   "componentType": 5121,
   "type": "SCALAR",
   "count": 6,
   "bufferView": 50
  },
  {
   "componentType": 5126,
   "type": "VEC3",
   "count": 4,
   "max": [
    9.926300048828125,
    7.672100067138672,
    1.125
   ],
   "min": [
    9.926300048828125,
    0.047100067138671875,
    -1.125
   ],
   "bufferView": 51
  },
  {
   "componentType": 5126,
   "type": "VEC3",
   "count": 4,
   "bufferView": 52
  },
  {
   "componentType": 5126,
   "type": "VEC2",
   "count": 4,
   "bufferView": 53
  },
  {
   "componentType": 5121,
   "type": "SCALAR",
   "count": 6,
   "bufferView": 54
  },
  {
   "componentType": 5126,
   "type": "VEC3",
   "count": 4,
   "max": [
    9.926300048828125,
    7.672100067138672,
    -1.125
   ],
   "min": [
    3.926300048828125,
    0.047100067138671875,
    -1.125
   ],
   "bufferView": 55
  },
  {
   "componentType": 5126,
   "type": "VEC3",
   "count": 4,
   "bufferView": 56
  },
  {
   "componentType": 5126,
   "type": "VEC2",
   "count": 4,
   "bufferView": 57
  },
  {
   "componentType": 5121,
   "type": "SCALAR",
   "count": 6,
   "bufferView": 58
  },
  {
   "componentType": 5126,
   "type": "VEC3",
   "count": 4,
   "max": [
    3.926300048828125,
    7.672100067138672,
    1.125
   ],
   "min": [
    3.926300048828125,
    0.047100067138671875,
    -1.125
   ],
   "bufferView": 59
  },
  {
   "componentType": 5126,
   "type": "VEC3",
   "count": 4,
   "bufferView": 60
  },
  {
   "componentType": 5126,
   "type": "VEC2",
   "count": 4,
   "bufferView": 61
  },
  {
   "componentType": 5121,
   "type": "SCALAR",
   "count": 6,
   "bufferView": 62
  },
  {
   "componentType": 5126,
   "type": "VEC3",
   "count": 4,
   "max": [
    2,
    -3.8125,
    1.125
   ],
   "min": [
    -2,
    -3.8125,
    -1.125
   ],
   "bufferView": 63
  },
  {
   "componentType": 5126,
   "type": "VEC3",
   "count": 4,
   "bufferView": 64
  },
  {
   "componentType": 5126,
   "type": "VEC2",
   "count": 4,
   "bufferView": 65
  },
  {
   "componentType": 5121,
   "type": "SCALAR",
   "count": 6,
   "bufferView": 66
  },
  {
   "componentType": 5126,
   "type": "VEC3",
   "count": 4,
   "max": [
    9.926300048828125,
    7.672100067138672,
    1.125
   ],
   "min": [
    3.926300048828125,
    0.047100067138671875,
    1.125
   ],
   "bufferView": 67
  },
  {
   "componentType": 5126,
   "type": "VEC3",
   "count": 4,
   "bufferView": 68
  },
  {
   "componentType": 5126,
   "type": "VEC2",
   "count": 4,
   "bufferView": 69
  },
  {
   "componentType": 5121,
   "type": "SCALAR",
   "count": 6,
   "bufferView": 70
  }
 ],
 "asset": {
  "version": "2.0",
  "generator": "clara.io"
 },
 "bufferViews": [
  {
   "buffer": 0,
   "byteOffset": 0,
   "byteLength": 132240
  },
  {
   "buffer": 0,
   "byteOffset": 132240,
   "byteLength": 213434
  },
  {
   "buffer": 0,
   "byteOffset": 345676,
   "byteLength": 207962
  },
  {
   "buffer": 0,
   "byteOffset": 553640,
   "byteLength": 6909
  },
  {
   "buffer": 0,
   "byteOffset": 560552,
   "byteLength": 7525
  },
  {
   "buffer": 0,
   "byteOffset": 568080,
   "byteLength": 183529
  },
  {
   "buffer": 0,
   "byteOffset": 751612,
   "byteLength": 193213
  },
  {
   "buffer": 0,
   "byteOffset": 944828,
   "byteLength": 144,
   "target": 34962,
   "byteStride": 12
  },
  {
   "buffer": 0,
   "byteOffset": 944972,
   "byteLength": 144,
   "target": 34962,
   "byteStride": 12
  },
  {
   "buffer": 0,
   "byteOffset": 945116,
   "byteLength": 96,
   "target": 34962,
   "byteStride": 8
  },
  {
   "buffer": 0,
   "byteOffset": 945212,
   "byteLength": 12,
   "target": 34963
  },
  {
   "buffer": 0,
   "byteOffset": 945224,
   "byteLength": 144,
   "target": 34962,
   "byteStride": 12
  },
  {
   "buffer": 0,
   "byteOffset": 945368,
   "byteLength": 144,
   "target": 34962,
   "byteStride": 12
  },
  {
   "buffer": 0,
   "byteOffset": 945512,
   "byteLength": 96,
   "target": 34962,
   "byteStride": 8
  },
  {
   "buffer": 0,
   "byteOffset": 945608,
   "byteLength": 12,
   "target": 34963
  },
  {
   "buffer": 0,
   "byteOffset": 945620,
   "byteLength": 48,
   "target": 34962,
   "byteStride": 12
  },
  {
   "buffer": 0,
   "byteOffset": 945668,
   "byteLength": 48,
   "target": 34962,
   "byteStride": 12
  },
  {
   "buffer": 0,
   "byteOffset": 945716,
   "byteLength": 32,
   "target": 34962,
   "byteStride": 8
  },
  {
   "buffer": 0,
   "byteOffset": 945748,
   "byteLength": 6,
   "target": 34963
  },
  {
   "buffer": 0,
   "byteOffset": 945756,
   "byteLength": 48,
   "target": 34962,
   "byteStride": 12
  },
  {
   "buffer": 0,
   "byteOffset": 945804,
   "byteLength": 48,
   "target": 34962,
   "byteStride": 12
  },
  {
   "buffer": 0,
   "byteOffset": 945852,
   "byteLength": 32,
   "target": 34962,
   "byteStride": 8
  },
  {
   "buffer": 0,
   "byteOffset": 945884,
   "byteLength": 6,
   "target": 34963
  },
  {
   "buffer": 0,
   "byteOffset": 945892,
   "byteLength": 96,
   "target": 34962,
   "byteStride": 12
  },
  {
   "buffer": 0,
   "byteOffset": 945988,
   "byteLength": 96,
   "target": 34962,
   "byteStride": 12
  },
  {
   "buffer": 0,
   "byteOffset": 946084,
   "byteLength": 64,
   "target": 34962,
   "byteStride": 8
  },
  {
   "buffer": 0,
   "byteOffset": 946148,
   "byteLength": 12,
   "target": 34963
  },
  {
   "buffer": 0,
   "byteOffset": 946160,
   "byteLength": 96,
   "target": 34962,
   "byteStride": 12
  },
  {
   "buffer": 0,
   "byteOffset": 946256,
   "byteLength": 96,
   "target": 34962,
   "byteStride": 12
  },
  {
   "buffer": 0,
   "byteOffset": 946352,
   "byteLength": 64,
   "target": 34962,
   "byteStride": 8
  },
  {
   "buffer": 0,
   "byteOffset": 946416,
   "byteLength": 12,
   "target": 34963
  },
  {
   "buffer": 0,
   "byteOffset": 946428,
   "byteLength": 48,
   "target": 34962,
   "byteStride": 12
  },
  {
   "buffer": 0,
   "byteOffset": 946476,
   "byteLength": 48,
   "target": 34962,
   "byteStride": 12
  },
  {
   "buffer": 0,
   "byteOffset": 946524,
   "byteLength": 32,
   "target": 34962,
   "byteStride": 8
  },
  {
   "buffer": 0,
   "byteOffset": 946556,
   "byteLength": 6,
   "target": 34963
  },
  {
   "buffer": 0,
   "byteOffset": 946564,
   "byteLength": 48,
   "target": 34962,
   "byteStride": 12
  },
  {
   "buffer": 0,
   "byteOffset": 946612,
   "byteLength": 48,
   "target": 34962,
   "byteStride": 12
  },
  {
   "buffer": 0,
   "byteOffset": 946660,
   "byteLength": 32,
   "target": 34962,
   "byteStride": 8
  },
  {
   "buffer": 0,
   "byteOffset": 946692,
   "byteLength": 6,
   "target": 34963
  },
  {
   "buffer": 0,
   "byteOffset": 946700,
   "byteLength": 240,
   "target": 34962,
   "byteStride": 12
  },
  {
   "buffer": 0,
   "byteOffset": 946940,
   "byteLength": 240,
   "target": 34962,
   "byteStride": 12
  },
  {
   "buffer": 0,
   "byteOffset": 947180,
   "byteLength": 160,
   "target": 34962,
   "byteStride": 8
  },
  {
   "buffer": 0,
   "byteOffset": 947340,
   "byteLength": 30,
   "target": 34963
  },
  {
   "buffer": 0,
   "byteOffset": 947372,
   "byteLength": 240,
   "target": 34962,
   "byteStride": 12
  },
  {
   "buffer": 0,
   "byteOffset": 947612,
   "byteLength": 240,
   "target": 34962,
   "byteStride": 12
  },
  {
   "buffer": 0,
   "byteOffset": 947852,
   "byteLength": 160,
   "target": 34962,
   "byteStride": 8
  },
  {
   "buffer": 0,
   "byteOffset": 948012,
   "byteLength": 30,
   "target": 34963
  },
  {
   "buffer": 0,
   "byteOffset": 948044,
   "byteLength": 48,
   "target": 34962,
   "byteStride": 12
  },
  {
   "buffer": 0,
   "byteOffset": 948092,
   "byteLength": 48,
   "target": 34962,
   "byteStride": 12
  },
  {
   "buffer": 0,
   "byteOffset": 948140,
   "byteLength": 32,
   "target": 34962,
   "byteStride": 8
  },
  {
   "buffer": 0,
   "byteOffset": 948172,
   "byteLength": 6,
   "target": 34963
  },
  {
   "buffer": 0,
   "byteOffset": 948180,
   "byteLength": 48,
   "target": 34962,
   "byteStride": 12
  },
  {
   "buffer": 0,
   "byteOffset": 948228,
   "byteLength": 48,
   "target": 34962,
   "byteStride": 12
  },
  {
   "buffer": 0,
   "byteOffset": 948276,
   "byteLength": 32,
   "target": 34962,
   "byteStride": 8
  },
  {
   "buffer": 0,
   "byteOffset": 948308,
   "byteLength": 6,
   "target": 34963
  },
  {
   "buffer": 0,
   "byteOffset": 948316,
   "byteLength": 48,
   "target": 34962,
   "byteStride": 12
  },
  {
   "buffer": 0,
   "byteOffset": 948364,
   "byteLength": 48,
   "target": 34962,
   "byteStride": 12
  },
  {
   "buffer": 0,
   "byteOffset": 948412,
   "byteLength": 32,
   "target": 34962,
   "byteStride": 8
  },
  {
   "buffer": 0,
   "byteOffset": 948444,
   "byteLength": 6,
   "target": 34963
  },
  {
   "buffer": 0,
   "byteOffset": 948452,
   "byteLength": 48,
   "target": 34962,
   "byteStride": 12
  },
  {
   "buffer": 0,
   "byteOffset": 948500,
   "byteLength": 48,
   "target": 34962,
   "byteStride": 12
  },
  {
   "buffer": 0,
   "byteOffset": 948548,
   "byteLength": 32,
   "target": 34962,
   "byteStride": 8
  },
  {
   "buffer": 0,
   "byteOffset": 948580,
   "byteLength": 6,
   "target": 34963
  },
  {
   "buffer": 0,
   "byteOffset": 948588,
   "byteLength": 48,
   "target": 34962,
   "byteStride": 12
  },
  {
   "buffer": 0,
   "byteOffset": 948636,
   "byteLength": 48,
   "target": 34962,
   "byteStride": 12
  },
  {
   "buffer": 0,
   "byteOffset": 948684,
   "byteLength": 32,
   "target": 34962,
   "byteStride": 8
  },
  {
   "buffer": 0,
   "byteOffset": 948716,
   "byteLength": 6,
   "target": 34963
  },
  {
   "buffer": 0,
   "byteOffset": 948724,
   "byteLength": 48,
   "target": 34962,
   "byteStride": 12
  },
  {
   "buffer": 0,
   "byteOffset": 948772,
   "byteLength": 48,
   "target": 34962,
   "byteStride": 12
  },
  {
   "buffer": 0,
   "byteOffset": 948820,
   "byteLength": 32,
   "target": 34962,
   "byteStride": 8
  },
  {
   "buffer": 0,
   "byteOffset": 948852,
   "byteLength": 6,
   "target": 34963
  }
 ],
 "buffers": [
  {
   "byteLength": 948860,
   "uri": "data:application/octet-stream;base64,"
  }
 ],
 "images": [
  {
   "name": "left.png",
   "bufferView": 0,
   "mimeType": "image/jpeg"
  },
  {
   "name": "right.png",
   "bufferView": 1,
   "mimeType": "image/jpeg"
  },
  {
   "name": "back.png",
   "bufferView": 2,
   "mimeType": "image/jpeg"
  },
  {
   "name": "top.png",
   "bufferView": 3,
   "mimeType": "image/jpeg"
  },
  {
   "name": "twintop.png",
   "bufferView": 4,
   "mimeType": "image/jpeg"
  },
  {
   "name": "twin_back.png",
   "bufferView": 5,
   "mimeType": "image/jpeg"
  },
  {
   "name": "twin_front2.png",
   "bufferView": 6,
   "mimeType": "image/jpeg"
  }
 ],
 "materials": [
  {
   "name": "m_Left",
   "pbrMetallicRoughness": {
    "baseColorFactor": [
     0.6901960784313725,
     0.6901960784313725,
     0.6901960784313725,
     1
    ],
    "baseColorTexture": {
     "index": 0,
     "texCoord": 0
    },
    "roughnessFactor": 0.75,
    "metallicFactor": 0
   }
  },
  {
   "name": "m_Right",
   "pbrMetallicRoughness": {
    "baseColorFactor": [
     0.6901960784313725,
     0.6901960784313725,
     0.6901960784313725,
     1
    ],
    "baseColorTexture": {
     "index": 1,
     "texCoord": 0
    },
    "roughnessFactor": 0.75,
    "metallicFactor": 0
   }
  },
  {
   "name": "m_Back",
   "pbrMetallicRoughness": {
    "baseColorFactor": [
     0.6901960784313725,
     0.6901960784313725,
     0.6901960784313725,
     1
    ],
    "baseColorTexture": {
     "index": 2,
     "texCoord": 0
    },
    "roughnessFactor": 0.75,
    "metallicFactor": 0
   }
  },
  {
   "name": "m_Top",
   "pbrMetallicRoughness": {
    "baseColorFactor": [
     0.6901960784313725,
     0.6901960784313725,
     0.6901960784313725,
     1
    ],
    "baseColorTexture": {
     "index": 3,
     "texCoord": 0
    },
    "roughnessFactor": 0.75,
    "metallicFactor": 0
   }
  },
  {
   "name": "m_Tab",
   "pbrMetallicRoughness": {
    "baseColorFactor": [
     0.6901960784313725,
     0.6901960784313725,
     0.6901960784313725,
     1
    ],
    "baseColorTexture": {
     "index": 1,
     "texCoord": 0
    },
    "roughnessFactor": 0.25,
    "metallicFactor": 0
   }
  },
  {
   "name": "m_Twin_Top",
   "pbrMetallicRoughness": {
    "baseColorFactor": [
     0.6901960784313725,
     0.6901960784313725,
     0.6901960784313725,
     1
    ],
    "baseColorTexture": {
     "index": 4,
     "texCoord": 0
    },
    "roughnessFactor": 0.75,
    "metallicFactor": 0
   }
  },
  {
   "name": "m_Twin_Back",
   "pbrMetallicRoughness": {
    "baseColorFactor": [
     0.6901960784313725,
     0.6901960784313725,
     0.6901960784313725,
     1
    ],
    "baseColorTexture": {
     "index": 5,
     "texCoord": 0
    },
    "roughnessFactor": 0.25,
    "metallicFactor": 0
   }
  },
  {
   "name": "m_Twin_Front2",
   "pbrMetallicRoughness": {
    "baseColorFactor": [
     0.6901960784313725,
     0.6901960784313725,
     0.6901960784313725,
     1
    ],
    "baseColorTexture": {
     "index": 6,
     "texCoord": 0
    },
    "roughnessFactor": 0.75,
    "metallicFactor": 0
   }
  },
  {
   "name": "Default-Box4",
   "pbrMetallicRoughness": {
    "baseColorFactor": [
     0.6901960784313725,
     0.6901960784313725,
     0.6901960784313725,
     1
    ]
   }
  },
  {
   "name": "Default-Box3",
   "pbrMetallicRoughness": {
    "baseColorFactor": [
     0.0196078431372549,
     0.058823529411764705,
     0.19607843137254902,
     1
    ]
   }
  },
  {
   "name": "Default-Box5",
   "pbrMetallicRoughness": {
    "baseColorFactor": [
     0.0196078431372549,
     0.058823529411764705,
     0.19607843137254902,
     1
    ]
   },
   "doubleSided": true
  },
  {
   "name": "Default-Box2",
   "pbrMetallicRoughness": {
    "baseColorFactor": [
     0.6901960784313725,
     0.6901960784313725,
     0.6901960784313725,
     1
    ]
   }
  }
 ],
 "meshes": [
  {
   "primitives": [
    {
     "indices": 3,
     "material": 4,
     "mode": 4,
     "attributes": {
      "POSITION": 0,
      "NORMAL": 1,
      "TEXCOORD_0": 2
     }
    }
   ]
  },
  {
   "primitives": [
    {
     "indices": 7,
     "material": 4,
     "mode": 4,
     "attributes": {
      "POSITION": 4,
      "NORMAL": 5,
      "TEXCOORD_0": 6
     }
    }
   ]
  },
  {
   "primitives": [
    {
     "indices": 11,
     "material": 0,
     "mode": 4,
     "attributes": {
      "POSITION": 8,
      "NORMAL": 9,
      "TEXCOORD_0": 10
     }
    }
   ]
  },
  {
   "primitives": [
    {
     "indices": 15,
     "material": 1,
     "mode": 4,
     "attributes": {
      "POSITION": 12,
      "NORMAL": 13,
      "TEXCOORD_0": 14
     }
    }
   ]
  },
  {
   "primitives": [
    {
     "indices": 19,
     "material": 2,
     "mode": 4,
     "attributes": {
      "POSITION": 16,
      "NORMAL": 17,
      "TEXCOORD_0": 18
     }
    }
   ]
  },
  {
   "primitives": [
    {
     "indices": 23,
     "material": 3,
     "mode": 4,
     "attributes": {
      "POSITION": 20,
      "NORMAL": 21,
      "TEXCOORD_0": 22
     }
    }
   ]
  },
  {
   "primitives": [
    {
     "indices": 27,
     "material": 8,
     "mode": 4,
     "attributes": {
      "POSITION": 24,
      "NORMAL": 25,
      "TEXCOORD_0": 26
     }
    }
   ]
  },
  {
   "primitives": [
    {
     "indices": 31,
     "material": 5,
     "mode": 4,
     "attributes": {
      "POSITION": 28,
      "NORMAL": 29,
      "TEXCOORD_0": 30
     }
    }
   ]
  },
  {
   "primitives": [
    {
     "indices": 35,
     "material": 9,
     "mode": 4,
     "attributes": {
      "POSITION": 32,
      "NORMAL": 33,
      "TEXCOORD_0": 34
     }
    }
   ]
  },
  {
   "primitives": [
    {
     "indices": 39,
     "material": 10,
     "mode": 4,
     "attributes": {
      "POSITION": 36,
      "NORMAL": 37,
      "TEXCOORD_0": 38
     }
    }
   ]
  },
  {
   "primitives": [
    {
     "indices": 43,
     "material": 4,
     "mode": 4,
     "attributes": {
      "POSITION": 40,
      "NORMAL": 41,
      "TEXCOORD_0": 42
     }
    }
   ]
  },
  {
   "primitives": [
    {
     "indices": 47,
     "material": 1,
     "mode": 4,
     "attributes": {
      "POSITION": 44,
      "NORMAL": 45,
      "TEXCOORD_0": 46
     }
    }
   ]
  },
  {
   "primitives": [
    {
     "indices": 51,
     "material": 6,
     "mode": 4,
     "attributes": {
      "POSITION": 48,
      "NORMAL": 49,
      "TEXCOORD_0": 50
     }
    }
   ]
  },
  {
   "primitives": [
    {
     "indices": 55,
     "material": 0,
     "mode": 4,
     "attributes": {
      "POSITION": 52,
      "NORMAL": 53,
      "TEXCOORD_0": 54
     }
    }
   ]
  },
  {
   "primitives": [
    {
     "indices": 59,
     "material": 11,
     "mode": 4,
     "attributes": {
      "POSITION": 56,
      "NORMAL": 57,
      "TEXCOORD_0": 58
     }
    }
   ]
  },
  {
   "primitives": [
    {
     "indices": 63,
     "material": 7,
     "mode": 4,
     "attributes": {
      "POSITION": 60,
      "NORMAL": 61,
      "TEXCOORD_0": 62
     }
    }
   ]
  }
 ],
 "nodes": [
  {
   "name": "Box1",
   "translation": [
    0,
    3.8512001037597656,
    0
   ],
   "children": [
    15
   ]
  },
  {
   "name": "Tab",
   "mesh": 0
  },
  {
   "name": "Tab1",
   "translation": [
    6.921999931335449,
    0,
    0
   ],
   "scale": [
    1.5,
    1,
    1
   ],
   "mesh": 1
  },
  {
   "name": "Left",
   "mesh": 2
  },
  {
   "name": "Right",
   "mesh": 3
  },
  {
   "name": "Back",
   "mesh": 4
  },
  {
   "name": "Top",
   "mesh": 5
  },
  {
   "name": "Box4",
   "translation": [
    6.926300048828125,
    3.859600067138672,
    0
   ],
   "mesh": 6
  },
  {
   "name": "Twin_Top",
   "mesh": 7
  },
  {
   "name": "Box3",
   "translation": [
    0.0013000000035390258,
    8.15880012512207,
    -1.0927000045776367
   ],
   "mesh": 8
  },
  {
   "name": "Box5",
   "translation": [
    6.921999931335449,
    8.15880012512207,
    -1.0927000045776367
   ],
   "scale": [
    1.5,
    1,
    1
   ],
   "mesh": 9
  },
  {
   "name": "Front",
   "mesh": 10
  },
  {
   "name": "Twin_Right",
   "mesh": 11
  },
  {
   "name": "Twin_Back",
   "mesh": 12
  },
  {
   "name": "Twin_Left",
   "mesh": 13
  },
  {
   "name": "Box2",
   "mesh": 14
  },
  {
   "name": "Twin_Front",
   "mesh": 15
  }
 ],
 "samplers": [
  {
   "magFilter": 9729,
   "minFilter": 9987,
   "wrapS": 10497,
   "wrapT": 10497
  }
 ],
 "scene": 0,
 "scenes": [
  {
   "nodes": [
    0,
    1,
    2,
    3,
    4,
    5,
    6,
    7,
    8,
    9,
    10,
    11,
    12,
    13,
    14,
    16
   ]
  }
 ],
 "textures": [
  {
   "sampler": 0,
   "source": 0
  },
  {
   "sampler": 0,
   "source": 1
  },
  {
   "sampler": 0,
   "source": 2
  },
  {
   "sampler": 0,
   "source": 3
  },
  {
   "sampler": 0,
   "source": 4
  },
  {
   "sampler": 0,
   "source": 5
  },
  {
   "sampler": 0,
   "source": 6
  }
 ]
}