{
 "accessors": [
  {
   "componentType": 5126,
   "type": "VEC3",
   "count": 144,
   "max": [
    0.5,
    1,
    0.4330126941204071
   ],
   "min": [
    -0.5,
    -1,
    -0.5
   ],
   "bufferView": 5
  },
  {
   "componentType": 5126,
   "type": "VEC3",
   "count": 144,
   "bufferView": 6
  },
  {
   "componentType": 5126,
   "type": "VEC2",
   "count": 144,
   "bufferView": 7
  },
  {
   "componentType": 5121,
   "type": "SCALAR",
   "count": 276,
   "bufferView": 8
  },
  {
   "componentType": 5126,
   "type": "VEC3",
   "count": 24,
   "max": [
    0.10000000149011612,
    0.05000000074505806,
    0.004999999888241291
   ],
   "min": [
    -0.10000000149011612,
    -0.05000000074505806,
    -0.004999999888241291
   ],
   "bufferView": 9
  },
  {
   "componentType": 5126,
   "type": "VEC3",
   "count": 24,
   "bufferView": 10
  },
  {
   "componentType": 5126,
   "type": "VEC2",
   "count": 24,
   "bufferView": 11
  },
  {
   "componentType": 5121,
   "type": "SCALAR",
   "count": 36,
   "bufferView": 12
  },
  {
   "componentType": 5126,
   "type": "VEC3",
   "count": 24,
   "max": [
    0.10000000149011612,
    0.05000000074505806,
    0.004999999888241291
   ],
   "min": [
    -0.10000000149011612,
    -0.05000000074505806,
    -0.004999999888241291
   ],
   "bufferView": 13
  },
  {
   "componentType": 5126,
   "type": "VEC3",
   "count": 24,
   "bufferView": 14
  },
  {
   "componentType": 5126,
   "type": "VEC2",
   "count": 24,
   "bufferView": 15
  },
  {
   "componentType": 5121,
   "type": "SCALAR",
   "count": 36,
   "bufferView": 16
  },
  {
   "componentType": 5126,
   "type": "VEC3",
   "count": 148,
   "max": [
    0.00800000037997961,
    0.004999999888241291,
    0.00800000037997961
   ],
   "min": [
    -0.00800000037997961,
    -0.004999999888241291,
    -0.00800000037997961
   ],
   "bufferView": 17
  },
  {
   "componentType": 5126,
   "type": "VEC3",
   "count": 148,
   "bufferView": 18
  },
  {
   "componentType": 5126,
   "type": "VEC2",
   "count": 148,
   "bufferView": 19
  },
  {
   "componentType": 5121,
   "type": "SCALAR",
   "count": 288,
   "bufferView": 20
  },
  {
   "componentType": 5126,
   "type": "VEC3",
   "count": 148,
   "max": [
    0.00800000037997961,
    0.004999999888241291,
    0.00800000037997961
   ],
   "min": [
    -0.00800000037997961,
    -0.004999999888241291,
    -0.00800000037997961
   ],
   "bufferView": 21
  },
  {
   "componentType": 5126,
   "type": "VEC3",
   "count": 148,
   "bufferView": 22
  },
  {
   "componentType": 5126,
   "type": "VEC2",
   "count": 148,
   "bufferView": 23
  },
  {
   "componentType": 5121,
   "type": "SCALAR",
   "count": 288,
   "bufferView": 24
  },
  {
   "componentType": 5126,
   "type": "VEC3",
   "count": 148,
   "max": [
    0.00800000037997961,
    0.004999999888241291,
    0.00800000037997961
   ],
   "min": [
    -0.00800000037997961,
    -0.004999999888241291,
    -0.00800000037997961
   ],
   "bufferView": 25
  },
  {
   "componentType": 5126,
   "type": "VEC3",
   "count": 148,
   "bufferView": 26
  },
  {
   "componentType": 5126,
   "type": "VEC2",
   "count": 148,
   "bufferView": 27
  },
  {
   "componentType": 5121,
   "type": "SCALAR",
   "count": 288,
   "bufferView": 28
  },
  {
   "componentType": 5126,
   "type": "VEC3",
   "count": 148,
   "max": [
    0.00800000037997961,
    0.004999999888241291,
    0.00800000037997961
   ],
   "min": [
    -0.00800000037997961,
    -0.004999999888241291,
    -0.00800000037997961
   ],
   "bufferView": 29
  },
  {
   "componentType": 5126,
   "type": "VEC3",
   "count": 148,
   "bufferView": 30
  },
  {
   "componentType": 5126,
   "type": "VEC2",
   "count": 148,
   "bufferView": 31
  },
  {
   "componentType": 5121,
   "type": "SCALAR",
   "count": 288,
   "bufferView": 32
  },
  {
   "componentType": 5126,
   "type": "VEC3",
   "count": 148,
   "max": [
    0.00800000037997961,
    0.004999999888241291,
    0.00800000037997961
   ],
   "min": [
    -0.00800000037997961,
    -0.004999999888241291,
    -0.00800000037997961
   ],
   "bufferView": 33
  },
  {
   "componentType": 5126,
   "type": "VEC3",
   "count": 148,
   "bufferView": 34
  },
  {
   "componentType": 5126,
   "type": "VEC2",
   "count": 148,
   "bufferView": 35
  },
  {
   "componentType": 5121,
   "type": "SCALAR",
   "count": 288,
   "bufferView": 36
  },
  {
   "componentType": 5126,
   "type": "VEC3",
   "count": 148,
   "max": [
    0.00800000037997961,
    0.004999999888241291,
    0.00800000037997961
   ],
   "min": [
    -0.00800000037997961,
    -0.004999999888241291,
    -0.00800000037997961
   ],
   "bufferView": 37
  },
  {
   "componentType": 5126,
   "type": "VEC3",
   "count": 148,
   "bufferView": 38
  },
  {
   "componentType": 5126,
   "type": "VEC2",
   "count": 148,
   "bufferView": 39
  },
  {
   "componentType": 5121,
   "type": "SCALAR",
   "count": 288,
   "bufferView": 40
  },
  {
   "componentType": 5126,
   "type": "VEC3",
   "count": 24,
   "max": [
    0.02500000037252903,
    0.10000000149011612,
    0.004999999888241291
   ],
   "min": [
    -0.02500000037252903,
    -0.10000000149011612,
    -0.004999999888241291
   ],
   "bufferView": 41
  },
  {
   "componentType": 5126,
   "type": "VEC3",
   "count": 24,
   "bufferView": 42
  },
  {
   "componentType": 5126,
   "type": "VEC2",
   "count": 24,
   "bufferView": 43
  },
  {
   "componentType": 5121,
   "type": "SCALAR",
   "count": 36,
   "bufferView": 44
  },
  {
   "componentType": 5126,
   "type": "VEC3",
   "count": 24,
   "max": [
    0.02500000037252903,
    0.10000000149011612,
    0.004999999888241291
   ],
   "min": [
    -0.02500000037252903,
    -0.10000000149011612,
    -0.004999999888241291
   ],
   "bufferView": 45
  },
  {
   "componentType": 5126,
   "type": "VEC3",
   "count": 24,
   "bufferView": 46
  },
  {
   "componentType": 5126,
   "type": "VEC2",
   "count": 24,
   "bufferView": 47
  },
  {
   "componentType": 5121,
   "type": "SCALAR",
   "count": 36,
   "bufferView": 48
  },
  {
   "componentType": 5126,
   "type": "VEC3",
   "count": 1008,
   "max": [
    0.17071068286895752,
    0.17071068286895752,
    0.005061058793216944
   ],
   "min": [
    -0.17071068286895752,
    -0.10000000149011612,
    -0.004999999888241291
   ],
   "bufferView": 49
  },
  {
   "componentType": 5126,
   "type": "VEC3",
   "count": 1008,
   "bufferView": 50
  },
  {
   "componentType": 5123,
   "type": "SCALAR",
   "count": 1512,
   "bufferView": 51
  },
  {
   "componentType": 5126,
   "type": "VEC3",
   "count": 1104,
   "max": [
    1.0062800645828247,
    0.125,
    0.5
   ],
   "min": [
    -1,
    -0.125,
    -0.5
   ],
   "bufferView": 52
  },
  {
   "componentType": 5126,
   "type": "VEC3",
   "count": 1104,
   "bufferView": 53
  },
  {
   "componentType": 5126,
   "type": "VEC2",
   "count": 1104,
   "bufferView": 54
  },
  {
   "componentType": 5123,
   "type": "SCALAR",
   "count": 1650,
   "bufferView": 55
  }
 ],
 "asset": {
  "version": "2.0",
  "generator": "clara.io"
 },
 "bufferViews": [
  {
   "buffer": 0,
   "byteOffset": 0,
   "byteLength": 263532
  },
  {
   "buffer": 0,
   "byteOffset": 263532,
   "byteLength": 100669
  },
  {
   "buffer": 0,
   "byteOffset": 364204,
   "byteLength": 131072
  },
  {
   "buffer": 0,
   "byteOffset": 495276,
   "byteLength": 415695
  },
  {
   "buffer": 0,
   "byteOffset": 910972,
   "byteLength": 278436
  },
  {
   "buffer": 0,
   "byteOffset": 1189408,
   "byteLength": 1728,
   "target": 34962,
   "byteStride": 12
  },
  {
   "buffer": 0,
   "byteOffset": 1191136,
   "byteLength": 1728,
   "target": 34962,
   "byteStride": 12
  },
  {
   "buffer": 0,
   "byteOffset": 1192864,
   "byteLength": 1152,
   "target": 34962,
   "byteStride": 8
  },
  {
   "buffer": 0,
   "byteOffset": 1194016,
   "byteLength": 276,
   "target": 34963
  },
  {
   "buffer": 0,
   "byteOffset": 1194292,
   "byteLength": 288,
   "target": 34962,
   "byteStride": 12
  },
  {
   "buffer": 0,
   "byteOffset": 1194580,
   "byteLength": 288,
   "target": 34962,
   "byteStride": 12
  },
  {
   "buffer": 0,
   "byteOffset": 1194868,
   "byteLength": 192,
   "target": 34962,
   "byteStride": 8
  },
  {
   "buffer": 0,
   "byteOffset": 1195060,
   "byteLength": 36,
   "target": 34963
  },
  {
   "buffer": 0,
   "byteOffset": 1195096,
   "byteLength": 288,
   "target": 34962,
   "byteStride": 12
  },
  {
   "buffer": 0,
   "byteOffset": 1195384,
   "byteLength": 288,
   "target": 34962,
   "byteStride": 12
  },
  {
   "buffer": 0,
   "byteOffset": 1195672,
   "byteLength": 192,
   "target": 34962,
   "byteStride": 8
  },
  {
   "buffer": 0,
   "byteOffset": 1195864,
   "byteLength": 36,
   "target": 34963
  },
  {
   "buffer": 0,
   "byteOffset": 1195900,
   "byteLength": 1776,
   "target": 34962,
   "byteStride": 12
  },
  {
   "buffer": 0,
   "byteOffset": 1197676,
   "byteLength": 1776,
   "target": 34962,
   "byteStride": 12
  },
  {
   "buffer": 0,
   "byteOffset": 1199452,
   "byteLength": 1184,
   "target": 34962,
   "byteStride": 8
  },
  {
   "buffer": 0,
   "byteOffset": 1200636,
   "byteLength": 288,
   "target": 34963
  },
  {
   "buffer": 0,
   "byteOffset": 1200924,
   "byteLength": 1776,
   "target": 34962,
   "byteStride": 12
  },
  {
   "buffer": 0,
   "byteOffset": 1202700,
   "byteLength": 1776,
   "target": 34962,
   "byteStride": 12
  },
  {
   "buffer": 0,
   "byteOffset": 1204476,
   "byteLength": 1184,
   "target": 34962,
   "byteStride": 8
  },
  {
   "buffer": 0,
   "byteOffset": 1205660,
   "byteLength": 288,
   "target": 34963
  },
  {
   "buffer": 0,
   "byteOffset": 1205948,
   "byteLength": 1776,
   "target": 34962,
   "byteStride": 12
  },
  {
   "buffer": 0,
   "byteOffset": 1207724,
   "byteLength": 1776,
   "target": 34962,
   "byteStride": 12
  },
  {
   "buffer": 0,
   "byteOffset": 1209500,
   "byteLength": 1184,
   "target": 34962,
   "byteStride": 8
  },
  {
   "buffer": 0,
   "byteOffset": 1210684,
   "byteLength": 288,
   "target": 34963
  },
  {
   "buffer": 0,
   "byteOffset": 1210972,
   "byteLength": 1776,
   "target": 34962,
   "byteStride": 12
  },
  {
   "buffer": 0,
   "byteOffset": 1212748,
   "byteLength": 1776,
   "target": 34962,
   "byteStride": 12
  },
  {
   "buffer": 0,
   "byteOffset": 1214524,
   "byteLength": 1184,
   "target": 34962,
   "byteStride": 8
  },
  {
   "buffer": 0,
   "byteOffset": 1215708,
   "byteLength": 288,
   "target": 34963
  },
  {
   "buffer": 0,
   "byteOffset": 1215996,
   "byteLength": 1776,
   "target": 34962,
   "byteStride": 12
  },
  {
   "buffer": 0,
   "byteOffset": 1217772,
   "byteLength": 1776,
   "target": 34962,
   "byteStride": 12
  },
  {
   "buffer": 0,
   "byteOffset": 1219548,
   "byteLength": 1184,
   "target": 34962,
   "byteStride": 8
  },
  {
   "buffer": 0,
   "byteOffset": 1220732,
   "byteLength": 288,
   "target": 34963
  },
  {
   "buffer": 0,
   "byteOffset": 1221020,
   "byteLength": 1776,
   "target": 34962,
   "byteStride": 12
  },
  {
   "buffer": 0,
   "byteOffset": 1222796,
   "byteLength": 1776,
   "target": 34962,
   "byteStride": 12
  },
  {
   "buffer": 0,
   "byteOffset": 1224572,
   "byteLength": 1184,
   "target": 34962,
   "byteStride": 8
  },
  {
   "buffer": 0,
   "byteOffset": 1225756,
   "byteLength": 288,
   "target": 34963
  },
  {
   "buffer": 0,
   "byteOffset": 1226044,
   "byteLength": 288,
   "target": 34962,
   "byteStride": 12
  },
  {
   "buffer": 0,
   "byteOffset": 1226332,
   "byteLength": 288,
   "target": 34962,
   "byteStride": 12
  },
  {
   "buffer": 0,
   "byteOffset": 1226620,
   "byteLength": 192,
   "target": 34962,
   "byteStride": 8
  },
  {
   "buffer": 0,
   "byteOffset": 1226812,
   "byteLength": 36,
   "target": 34963
  },
  {
   "buffer": 0,
   "byteOffset": 1226848,
   "byteLength": 288,
   "target": 34962,
   "byteStride": 12
  },
  {
   "buffer": 0,
   "byteOffset": 1227136,
   "byteLength": 288,
   "target": 34962,
   "byteStride": 12
  },
  {
   "buffer": 0,
   "byteOffset": 1227424,
   "byteLength": 192,
   "target": 34962,
   "byteStride": 8
  },
  {
   "buffer": 0,
   "byteOffset": 1227616,
   "byteLength": 36,
   "target": 34963
  },
  {
   "buffer": 0,
   "byteOffset": 1227652,
   "byteLength": 12096,
   "target": 34962,
   "byteStride": 12
  },
  {
   "buffer": 0,
   "byteOffset": 1239748,
   "byteLength": 12096,
   "target": 34962,
   "byteStride": 12
  },
  {
   "buffer": 0,
   "byteOffset": 1251844,
   "byteLength": 3024,
   "target": 34963
  },
  {
   "buffer": 0,
   "byteOffset": 1254868,
   "byteLength": 13248,
   "target": 34962,
   "byteStride": 12
  },
  {
   "buffer": 0,
   "byteOffset": 1268116,
   "byteLength": 13248,
   "target": 34962,
   "byteStride": 12
  },
  {
   "buffer": 0,
   "byteOffset": 1281364,
   "byteLength": 8832,
   "target": 34962,
   "byteStride": 8
  },
  {
   "buffer": 0,
   "byteOffset": 1290196,
   "byteLength": 3300,
   "target": 34963
  }
 ],
 "buffers": [
  {
   "byteLength": 1293496,
   "uri": "data:application/octet-stream;base64,"
  }
 ],
 "images": [
  {
   "name": "barel texture 3.jpg",
   "bufferView": 0,
   "mimeType": "image/jpeg"
  },
  {
   "name": "pntyPng2.png",
   "bufferView": 1,
   "mimeType": "image/png"
  },
  {
   "name": "screw.jpg",
   "bufferView": 2,
   "mimeType": "image/jpeg"
  },
  {
   "name": "rusted black.jpg",
   "bufferView": 3,
   "mimeType": "image/jpeg"
  },
  {
   "name": "lock2.png",
   "bufferView": 4,
   "mimeType": "image/jpeg"
  }
 ],
 "materials": [
  {
   "name": "Standard",
   "pbrMetallicRoughness": {
    "baseColorFactor": [
     0.6901960784313725,
     0.6901960784313725,
     0.6901960784313725,
     1
    ],
    "baseColorTexture": {
     "index": 0,
     "texCoord": 0
    },
    "roughnessFactor": 0.1961,
    "metallicFactor": 0
   }
  },
  {
   "name": "Standard1",
   "pbrMetallicRoughness": {
    "baseColorFactor": [
     0.6901960784313725,
     0.6901960784313725,
     0.6901960784313725,
     1
    ],
    "baseColorTexture": {
     "index": 1,
     "texCoord": 0
    },
    "roughnessFactor": 0.1961,
    "metallicFactor": 0
   }
  },
  {
   "name": "Standard2",
   "pbrMetallicRoughness": {
    "baseColorFactor": [
     0.6901960784313725,
     0.6901960784313725,
     0.6901960784313725,
     1
    ],
    "baseColorTexture": {
     "index": 2,
     "texCoord": 0
    },
    "roughnessFactor": 0.1961,
    "metallicFactor": 0
   }
  },
  {
   "name": "Standard3",
   "pbrMetallicRoughness": {
    "baseColorFactor": [
     0.6901960784313725,
     0.6901960784313725,
     0.6901960784313725,
     1
    ],
    "baseColorTexture": {
     "index": 3,
     "texCoord": 0
    },
    "roughnessFactor": 0.1961,
    "metallicFactor": 0
   }
  },
  {
   "name": "Standard4",
   "pbrMetallicRoughness": {
    "baseColorFactor": [
     0.6901960784313725,
     0.6901960784313725,
     0.6901960784313725,
     1
    ],
    "baseColorTexture": {
     "index": 4,
     "texCoord": 0
    },
    "roughnessFactor": 0.1961,
    "metallicFactor": 0
   }
  }
 ],
 "meshes": [
  {
   "primitives": [
    {
     "indices": 3,
     "material": 0,
     "mode": 4,
     "attributes": {
      "POSITION": 0,
      "NORMAL": 1,
      "TEXCOORD_0": 2
     }
    }
   ]
  },
  {
   "primitives": [
    {
     "indices": 7,
     "material": 1,
     "mode": 4,
     "attributes": {
      "POSITION": 4,
      "NORMAL": 5,
      "TEXCOORD_0": 6
     }
    }
   ]
  },
  {
   "primitives": [
    {
     "indices": 11,
     "material": 1,
     "mode": 4,
     "attributes": {
      "POSITION": 8,
      "NORMAL": 9,
      "TEXCOORD_0": 10
     }
    }
   ]
  },
  {
   "primitives": [
    {
     "indices": 15,
     "material": 2,
     "mode": 4,
     "attributes": {
      "POSITION": 12,
      "NORMAL": 13,
      "TEXCOORD_0": 14
     }
    }
   ]
  },
  {
   "primitives": [
    {
     "indices": 19,
     "material": 2,
     "mode": 4,
     "attributes": {
      "POSITION": 16,
      "NORMAL": 17,
      "TEXCOORD_0": 18
     }
    }
   ]
  },
  {
   "primitives": [
    {
     "indices": 23,
     "material": 2,
     "mode": 4,
     "attributes": {
      "POSITION": 20,
      "NORMAL": 21,
      "TEXCOORD_0": 22
     }
    }
   ]
  },
  {
   "primitives": [
    {
     "indices": 27,
     "material": 2,
     "mode": 4,
     "attributes": {
      "POSITION": 24,
      "NORMAL": 25,
      "TEXCOORD_0": 26
     }
    }
   ]
  },
  {
   "primitives": [
    {
     "indices": 31,
     "material": 2,
     "mode": 4,
     "attributes": {
      "POSITION": 28,
      "NORMAL": 29,
      "TEXCOORD_0": 30
     }
    }
   ]
  },
  {
   "primitives": [
    {
     "indices": 35,
     "material": 2,
     "mode": 4,
     "attributes": {
      "POSITION": 32,
      "NORMAL": 33,
      "TEXCOORD_0": 34
     }
    }
   ]
  },
  {
   "primitives": [
    {
     "indices": 39,
     "material": 3,
     "mode": 4,
     "attributes": {
      "POSITION": 36,
      "NORMAL": 37,
      "TEXCOORD_0": 38
     }
    }
   ]
  },
  {
   "primitives": [
    {
     "indices": 43,
     "material": 3,
     "mode": 4,
     "attributes": {
      "POSITION": 40,
      "NORMAL": 41,
      "TEXCOORD_0": 42
     }
    }
   ]
  },
  {
   "primitives": [
    {
     "indices": 46,
     "material": 4,
     "mode": 4,
     "attributes": {
      "POSITION": 44,
      "NORMAL": 45
     }
    }
   ]
  },
  {
   "primitives": [
    {
     "indices": 50,
     "material": 0,
     "mode": 4,
     "attributes": {
      "POSITION": 47,
      "NORMAL": 48,
      "TEXCOORD_0": 49
     }
    }
   ]
  }
 ],
 "nodes": [
  {
   "name": "Top",
   "translation": [
    0,
    0,
    -0.007000000216066837
   ],
   "rotation": [
    0.5,
    -0.5,
    0.5,
    0.5
   ],
   "children": [
    1
   ]
  },
  {
   "name": "Cylinder",
   "mesh": 0
  },
  {
   "name": "LightPreset",
   "translation": [
    0,
    0,
    0.2872500419616699
   ]
  },
  {
   "name": "CameraPreset",
   "translation": [
    0,
    0,
    0.2872500419616699
   ]
  },
  {
   "name": "Box1",
   "translation": [
    -0.6011999845504761,
    0,
    -0.5049999952316284
   ],
   "mesh": 1
  },
  {
   "name": "Box2",
   "translation": [
    0.5945000052452087,
    0,
    -0.503600001335144
   ],
   "mesh": 2
  },
  {
   "name": "Screws",
   "translation": [
    -0.2804666757583618,
    -0.00039999998989515007,
    -0.5055000185966492
   ],
   "children": [
    7,
    8,
    9,
    10,
    11,
    12
   ]
  },
  {
   "name": "Cylinder2",
   "translation": [
    0.0708666741847992,
    0.029399998486042023,
    0
   ],
   "rotation": [
    0.7071067811865475,
    0,
    0,
    0.7071067811865476
   ],
   "mesh": 3
  },
  {
   "name": "Cylinder3",
   "translation": [
    -0.07063332200050354,
    0.029399998486042023,
    0
   ],
   "rotation": [
    0.7071067811865475,
    0,
    0,
    0.7071067811865476
   ],
   "mesh": 4
  },
  {
   "name": "Cylinder4",
   "translation": [
    0.0708666741847992,
    -0.029400000348687172,
    0
   ],
   "rotation": [
    0.7071067811865475,
    0,
    0,
    0.7071067811865476
   ],
   "mesh": 5
  },
  {
   "name": "Cylinder5",
   "translation": [
    0.00026667118072509766,
    -0.029400000348687172,
    0
   ],
   "rotation": [
    0.7071067811865475,
    0,
    0,
    0.7071067811865476
   ],
   "mesh": 6
  },
  {
   "name": "Cylinder6",
   "translation": [
    -0.07153332233428955,
    -0.029400000348687172,
    0
   ],
   "rotation": [
    0.7071067811865475,
    0,
    0,
    0.7071067811865476
   ],
   "mesh": 7
  },
  {
   "name": "Cylinder1",
   "translation": [
    0.00016668438911437988,
    0.029399998486042023,
    0
   ],
   "rotation": [
    0.7071067811865475,
    0,
    0,
    0.7071067811865476
   ],
   "mesh": 8
  },
  {
   "name": "Box3",
   "translation": [
    -0.605400025844574,
    -0.05480000004172325,
    0.49410000443458557
   ],
   "mesh": 9
  },
  {
   "name": "Box4",
   "translation": [
    0.607200026512146,
    -0.05480000004172325,
    0.49410000443458557
   ],
   "mesh": 10
  },
  {
   "name": "Box5",
   "translation": [
    0.006300000008195639,
    -0.29409998655319214,
    0.49480000138282776
   ],
   "mesh": 11
  },
  {
   "name": "Box",
   "translation": [
    0,
    -0.38260000944137573,
    -0.006500000134110451
   ],
   "scale": [
    1,
    3,
    1
   ],
   "mesh": 12
  }
 ],
 "samplers": [
  {
   "magFilter": 9729,
   "minFilter": 9987,
   "wrapS": 10497,
   "wrapT": 10497
  }
 ],
 "scene": 0,
 "scenes": [
  {
   "nodes": [
    0,
    2,
    3,
    4,
    5,
    6,
    13,
    14,
    15,
    16
   ]
  }
 ],
 "textures": [
  {
   "sampler": 0,
   "source": 0
  },
  {
   "sampler": 0,
   "source": 1
  },
  {
   "sampler": 0,
   "source": 2
  },
  {
   "sampler": 0,
   "source": 3
  },
  {
   "sampler": 0,
   "source": 4
  }
 ]
}