{
 "accessors": [
  {
   "componentType": 5126,
   "type": "VEC3",
   "count": 1448,
   "max": [
    29.500001907348633,
    42.099998474121094,
    30.154693603515625
   ],
   "min": [
    -29.500001907348633,
    -42.099998474121094,
    -30.000001907348633
   ],
   "bufferView": 1
  },
  {
   "componentType": 5126,
   "type": "VEC3",
   "count": 1448,
   "bufferView": 2
  },
  {
   "componentType": 5126,
   "type": "VEC2",
   "count": 1448,
   "bufferView": 3
  },
  {
   "componentType": 5123,
   "type": "SCALAR",
   "count": 714,
   "bufferView": 4
  },
  {
   "componentType": 5123,
   "type": "SCALAR",
   "count": 2772,
   "bufferView": 5
  },
  {
   "componentType": 5123,
   "type": "SCALAR",
   "count": 177,
   "bufferView": 6
  },
  {
   "componentType": 5123,
   "type": "SCALAR",
   "count": 219,
   "bufferView": 7
  },
  {
   "componentType": 5123,
   "type": "SCALAR",
   "count": 150,
   "bufferView": 8
  },
  {
   "componentType": 5123,
   "type": "SCALAR",
   "count": 36,
   "bufferView": 9
  },
  {
   "componentType": 5123,
   "type": "SCALAR",
   "count": 606,
   "bufferView": 10
  },
  {
   "componentType": 5123,
   "type": "SCALAR",
   "count": 6,
   "bufferView": 11
  },
  {
   "componentType": 5123,
   "type": "SCALAR",
   "count": 123,
   "bufferView": 12
  }
 ],
 "asset": {
  "version": "2.0",
  "generator": "clara.io"
 },
 "bufferViews": [
  {
   "buffer": 0,
   "byteOffset": 0,
   "byteLength": 13155
  },
  {
   "buffer": 0,
   "byteOffset": 13156,
   "byteLength": 17376,
   "target": 34962,
   "byteStride": 12
  },
  {
   "buffer": 0,
   "byteOffset": 30532,
   "byteLength": 17376,
   "target": 34962,
   "byteStride": 12
  },
  {
   "buffer": 0,
   "byteOffset": 47908,
   "byteLength": 11584,
   "target": 34962,
   "byteStride": 8
  },
  {
   "buffer": 0,
   "byteOffset": 59492,
   "byteLength": 1428,
   "target": 34963
  },
  {
   "buffer": 0,
   "byteOffset": 60920,
   "byteLength": 5544,
   "target": 34963
  },
  {
   "buffer": 0,
   "byteOffset": 66464,
   "byteLength": 354,
   "target": 34963
  },
  {
   "buffer": 0,
   "byteOffset": 66820,
   "byteLength": 438,
   "target": 34963
  },
  {
   "buffer": 0,
   "byteOffset": 67260,
   "byteLength": 300,
   "target": 34963
  },
  {
   "buffer": 0,
   "byteOffset": 67560,
   "byteLength": 72,
   "target": 34963
  },
  {
   "buffer": 0,
   "byteOffset": 67632,
   "byteLength": 1212,
   "target": 34963
  },
  {
   "buffer": 0,
   "byteOffset": 68844,
   "byteLength": 12,
   "target": 34963
  },
  {
   "buffer": 0,
   "byteOffset": 68856,
   "byteLength": 246,
   "target": 34963
  }
 ],
 "buffers": [
  {
   "byteLength": 69104,
   "uri": "data:application/octet-stream;base64,"
  }
 ],
 "images": [
  {
   "name": "clothes_washing_machine.jpg",
   "bufferView": 0,
   "mimeType": "image/jpeg"
  }
 ],
 "materials": [
  {
   "name": "black-rubber",
   "pbrMetallicRoughness": {
    "baseColorFactor": [
     0.054968,
     0.054968,
     0.054968,
     1
    ],
    "metallicFactor": 0
   },
   "doubleSided": true
  },
  {
   "name": "glass",
   "pbrMetallicRoughness": {
    "baseColorFactor": [
     0.00637,
     0.00637,
     0.00637,
     1
    ],
    "baseColorTexture": {
     "index": 0,
     "texCoord": 0
    },
    "metallicFactor": 0
   },
   "doubleSided": true
  },
  {
   "name": "light-grey-no-reflection",
   "pbrMetallicRoughness": {
    "baseColorFactor": [
     0.698191,
     0.698191,
     0.698191,
     1
    ],
    "metallicFactor": 0
   },
   "doubleSided": true
  },
  {
   "name": "metal",
   "pbrMetallicRoughness": {
    "baseColorFactor": [
     0.26676,
     0.26676,
     0.26676,
     1
    ],
    "roughnessFactor": 0.1234,
    "metallicFactor": 0
   },
   "doubleSided": true
  },
  {
   "name": "metal-light",
   "pbrMetallicRoughness": {
    "baseColorFactor": [
     0.393113,
     0.393113,
     0.393113,
     1
    ],
    "roughnessFactor": 0.1158,
    "metallicFactor": 0
   },
   "doubleSided": true
  },
  {
   "name": "red-plastic",
   "pbrMetallicRoughness": {
    "baseColorFactor": [
     0.538223,
     0,
     0.007432,
     1
    ],
    "metallicFactor": 0
   },
   "doubleSided": true
  },
  {
   "name": "white-metal-textured",
   "pbrMetallicRoughness": {
    "baseColorTexture": {
     "index": 0,
     "texCoord": 0
    },
    "metallicFactor": 0
   },
   "doubleSided": true
  },
  {
   "name": "white-metal-without-texture",
   "pbrMetallicRoughness": {
    "metallicFactor": 0
   },
   "doubleSided": true
  },
  {
   "name": "white-no-reflection",
   "pbrMetallicRoughness": {
    "baseColorFactor": [
     0.8,
     0.8,
     0.8,
     1
    ],
    "metallicFactor": 0
   },
   "doubleSided": true
  }
 ],
 "meshes": [
  {
   "primitives": [
    {
     "indices": 3,
     "material": 3,
     "mode": 4,
     "attributes": {
      "POSITION": 0,
      "NORMAL": 1,
      "TEXCOORD_0": 2
     }
    },
    {
     "indices": 4,
     "material": 4,
     "mode": 4,
     "attributes": {
      "POSITION": 0,
      "NORMAL": 1,
      "TEXCOORD_0": 2
     }
    },
    {
     "indices": 5,
     "material": 8,
     "mode": 4,
     "attributes": {
      "POSITION": 0,
      "NORMAL": 1,
      "TEXCOORD_0": 2
     }
    },
    {
     "indices": 6,
     "material": 5,
     "mode": 4,
     "attributes": {
      "POSITION": 0,
      "NORMAL": 1,
      "TEXCOORD_0": 2
     }
    },
    {
     "indices": 7,
     "material": 6,
     "mode": 4,
     "attributes": {
      "POSITION": 0,
      "NORMAL": 1,
      "TEXCOORD_0": 2
     }
    },
    {
     "indices": 8,
     "material": 1,
     "mode": 4,
     "attributes": {
      "POSITION": 0,
      "NORMAL": 1,
      "TEXCOORD_0": 2
     }
    },
    {
     "indices": 9,
     "material": 7,
     "mode": 4,
     "attributes": {
      "POSITION": 0,
      "NORMAL": 1,
      "TEXCOORD_0": 2
     }
    },
    {
     "indices": 10,
     "material": 2,
     "mode": 4,
     "attributes": {
      "POSITION": 0,
      "NORMAL": 1,
      "TEXCOORD_0": 2
     }
    },
    {
     "indices": 11,
     "material": 0,
     "mode": 4,
     "attributes": {
      "POSITION": 0,
      "NORMAL": 1,
      "TEXCOORD_0": 2
     }
    }
   ]
  }
 ],
 "nodes": [
  {
   "name": "clothes_washing_machine",
   "children": [
    1
   ]
  },
  {
   "name": "Cube.007_Cube.009",
   "mesh": 0
  }
 ],
 "samplers": [
  {
   "magFilter": 9729,
   "minFilter": 9987,
   "wrapS": 10497,
   "wrapT": 10497
  }
 ],
 "scene": 0,
 "scenes": [
  {
   "nodes": [
    0
   ]
  }
 ],
 "textures": [
  {
   "sampler": 0,
   "source": 0
  }
 ]
}