{
 "accessors": [
  {
   "componentType": 5126,
   "type": "VEC3",
   "count": 336,
   "max": [
    1.399999976158142,
    1.9500000476837158,
    1.399999976158142
   ],
   "min": [
    -1.399999976158142,
    -1.9500000476837158,
    -1.399999976158142
   ],
   "bufferView": 1
  },
  {
   "componentType": 5126,
   "type": "VEC3",
   "count": 336,
   "bufferView": 2
  },
  {
   "componentType": 5126,
   "type": "VEC2",
   "count": 336,
   "bufferView": 3
  },
  {
   "componentType": 5123,
   "type": "SCALAR",
   "count": 432,
   "bufferView": 4
  }
 ],
 "asset": {
  "version": "2.0",
  "generator": "clara.io"
 },
 "bufferViews": [
  {
   "buffer": 0,
   "byteOffset": 0,
   "byteLength": 1233858
  },
  {
   "buffer": 0,
   "byteOffset": 1233860,
   "byteLength": 4032,
   "target": 34962,
   "byteStride": 12
  },
  {
   "buffer": 0,
   "byteOffset": 1237892,
   "byteLength": 4032,
   "target": 34962,
   "byteStride": 12
  },
  {
   "buffer": 0,
   "byteOffset": 1241924,
   "byteLength": 2688,
   "target": 34962,
   "byteStride": 8
  },
  {
   "buffer": 0,
   "byteOffset": 1244612,
   "byteLength": 864,
   "target": 34963
  }
 ],
 "buffers": [
  {
   "byteLength": 1245476,
   "uri": "data:application/octet-stream;base64,"
  }
 ],
 "images": [
  {
   "name": "Barrel.png",
   "bufferView": 0,
   "mimeType": "image/png"
  }
 ],
 "materials": [
  {
   "name": "BarrelMaterial",
   "pbrMetallicRoughness": {
    "baseColorFactor": [
     0.6901960784313725,
     0.6901960784313725,
     0.6901960784313725,
     1
    ],
    "baseColorTexture": {
     "index": 0,
     "texCoord": 0
    },
    "roughnessFactor": 0.25,
    "metallicFactor": 0
   }
  }
 ],
 "meshes": [
  {
   "primitives": [
    {
     "indices": 3,
     "material": 0,
     "mode": 4,
     "attributes": {
      "POSITION": 0,
      "NORMAL": 1,
      "TEXCOORD_0": 2
     }
    }
   ]
  }
 ],
 "nodes": [
  {
   "name": "Cylinder",
   "translation": [
    0,
    1.81850004196167,
    0
   ],
   "mesh": 0
  }
 ],
 "samplers": [
  {
   "magFilter": 9729,
   "minFilter": 9987,
   "wrapS": 10497,
   "wrapT": 10497
  }
 ],
 "scene": 0,
 "scenes": [
  {
   "nodes": [
    0
   ]
  }
 ],
 "textures": [
  {
   "sampler": 0,
   "source": 0
  }
 ]
}