{
 "accessors": [
  {
   "componentType": 5126,
   "type": "VEC3",
   "count": 1080,
   "max": [
    1.5,
    1.5,
    1.5
   ],
   "min": [
    -1.5,
    -1.5,
    -1.5
   ],
   "bufferView": 2
  },
  {
   "componentType": 5126,
   "type": "VEC3",
   "count": 1080,
   "bufferView": 3
  },
  {
   "componentType": 5126,
   "type": "VEC2",
   "count": 1080,
   "bufferView": 4
  },
  {
   "componentType": 5123,
   "type": "SCALAR",
   "count": 1290,
   "bufferView": 5
  },
  {
   "componentType": 5123,
   "type": "SCALAR",
   "count": 330,
   "bufferView": 6
  }
 ],
 "asset": {
  "version": "2.0",
  "generator": "clara.io"
 },
 "bufferViews": [
  {
   "buffer": 0,
   "byteOffset": 0,
   "byteLength": 54447
  },
  {
   "buffer": 0,
   "byteOffset": 54448,
   "byteLength": 85573
  },
  {
   "buffer": 0,
   "byteOffset": 140024,
   "byteLength": 12960,
   "target": 34962,
   "byteStride": 12
  },
  {
   "buffer": 0,
   "byteOffset": 152984,
   "byteLength": 12960,
   "target": 34962,
   "byteStride": 12
  },
  {
   "buffer": 0,
   "byteOffset": 165944,
   "byteLength": 8640,
   "target": 34962,
   "byteStride": 8
  },
  {
   "buffer": 0,
   "byteOffset": 174584,
   "byteLength": 2580,
   "target": 34963
  },
  {
   "buffer": 0,
   "byteOffset": 177164,
   "byteLength": 660,
   "target": 34963
  }
 ],
 "buffers": [
  {
   "byteLength": 177824,
   "uri": "data:application/octet-stream;base64,"
  }
 ],
 "images": [
  {
   "name": "pasted image 0 (2).png",
   "bufferView": 0,
   "mimeType": "image/jpeg"
  },
  {
   "name": "unnamed (1).png",
   "bufferView": 1,
   "mimeType": "image/jpeg"
  }
 ],
 "materials": [
  {
   "name": "pasted image 0 (2)Material",
   "pbrMetallicRoughness": {
    "baseColorFactor": [
     0.6901960784313725,
     0.6901960784313725,
     0.6901960784313725,
     1
    ],
    "baseColorTexture": {
     "index": 0,
     "texCoord": 0
    },
    "roughnessFactor": 0.2502,
    "metallicFactor": 0
   }
  },
  {
   "name": "unnamed (1)Material",
   "pbrMetallicRoughness": {
    "baseColorFactor": [
     0.6901960784313725,
     0.6901960784313725,
     0.6901960784313725,
     1
    ],
    "baseColorTexture": {
     "index": 1,
     "texCoord": 0
    },
    "roughnessFactor": 0.2502,
    "metallicFactor": 0
   }
  }
 ],
 "meshes": [
  {
   "primitives": [
    {
     "indices": 3,
     "material": 1,
     "mode": 4,
     "attributes": {
      "POSITION": 0,
      "NORMAL": 1,
      "TEXCOORD_0": 2
     }
    },
    {
     "indices": 4,
     "material": 0,
     "mode": 4,
     "attributes": {
      "POSITION": 0,
      "NORMAL": 1,
      "TEXCOORD_0": 2
     }
    }
   ]
  }
 ],
 "nodes": [
  {
   "name": "Box",
   "translation": [
    0,
    1.4285999536514282,
    0
   ],
   "mesh": 0
  }
 ],
 "samplers": [
  {
   "magFilter": 9729,
   "minFilter": 9987,
   "wrapS": 10497,
   "wrapT": 10497
  }
 ],
 "scene": 0,
 "scenes": [
  {
   "nodes": [
    0
   ]
  }
 ],
 "textures": [
  {
   "sampler": 0,
   "source": 0
  },
  {
   "sampler": 0,
   "source": 1
  }
 ]
}