{
 "accessors": [
  {
   "componentType": 5126,
   "type": "VEC3",
   "count": 148,
   "max": [
    0.5,
    0.15000000596046448,
    0.5
   ],
   "min": [
    -0.5,
    -0.15000000596046448,
    -0.5
   ],
   "bufferView": 3
  },
  {
   "componentType": 5126,
   "type": "VEC3",
   "count": 148,
   "bufferView": 4
  },
  {
   "componentType": 5126,
   "type": "VEC2",
   "count": 148,
   "bufferView": 5
  },
  {
   "componentType": 5121,
   "type": "SCALAR",
   "count": 288,
   "bufferView": 6
  },
  {
   "componentType": 5126,
   "type": "VEC3",
   "count": 148,
   "max": [
    0.5,
    0.15000000596046448,
    0.5
   ],
   "min": [
    -0.5,
    -0.15000000596046448,
    -0.5
   ],
   "bufferView": 7
  },
  {
   "componentType": 5126,
   "type": "VEC3",
   "count": 148,
   "bufferView": 8
  },
  {
   "componentType": 5126,
   "type": "VEC2",
   "count": 148,
   "bufferView": 9
  },
  {
   "componentType": 5121,
   "type": "SCALAR",
   "count": 288,
   "bufferView": 10
  },
  {
   "componentType": 5126,
   "type": "VEC3",
   "count": 148,
   "max": [
    0.5,
    0.15000000596046448,
    0.5
   ],
   "min": [
    -0.5,
    -0.15000000596046448,
    -0.5
   ],
   "bufferView": 11
  },
  {
   "componentType": 5126,
   "type": "VEC3",
   "count": 148,
   "bufferView": 12
  },
  {
   "componentType": 5126,
   "type": "VEC2",
   "count": 148,
   "bufferView": 13
  },
  {
   "componentType": 5121,
   "type": "SCALAR",
   "count": 288,
   "bufferView": 14
  },
  {
   "componentType": 5126,
   "type": "VEC3",
   "count": 148,
   "max": [
    0.5,
    0.15000000596046448,
    0.5
   ],
   "min": [
    -0.5,
    -0.15000000596046448,
    -0.5
   ],
   "bufferView": 15
  },
  {
   "componentType": 5126,
   "type": "VEC3",
   "count": 148,
   "bufferView": 16
  },
  {
   "componentType": 5126,
   "type": "VEC2",
   "count": 148,
   "bufferView": 17
  },
  {
   "componentType": 5121,
   "type": "SCALAR",
   "count": 288,
   "bufferView": 18
  },
  {
   "componentType": 5126,
   "type": "VEC3",
   "count": 24,
   "max": [
    2.5,
    0.5,
    1
   ],
   "min": [
    -2.5,
    -0.5,
    -1
   ],
   "bufferView": 19
  },
  {
   "componentType": 5126,
   "type": "VEC3",
   "count": 24,
   "bufferView": 20
  },
  {
   "componentType": 5126,
   "type": "VEC2",
   "count": 24,
   "bufferView": 21
  },
  {
   "componentType": 5121,
   "type": "SCALAR",
   "count": 36,
   "bufferView": 22
  },
  {
   "componentType": 5126,
   "type": "VEC3",
   "count": 24,
   "max": [
    2.25,
    1.5,
    0.05000000074505806
   ],
   "min": [
    -2.25,
    -1.5,
    -0.05000000074505806
   ],
   "bufferView": 23
  },
  {
   "componentType": 5126,
   "type": "VEC3",
   "count": 24,
   "bufferView": 24
  },
  {
   "componentType": 5126,
   "type": "VEC2",
   "count": 24,
   "bufferView": 25
  },
  {
   "componentType": 5121,
   "type": "SCALAR",
   "count": 36,
   "bufferView": 26
  },
  {
   "componentType": 5126,
   "type": "VEC3",
   "count": 68,
   "max": [
    2.5,
    1.5,
    1
   ],
   "min": [
    -2.5,
    -1.5,
    -1
   ],
   "bufferView": 27
  },
  {
   "componentType": 5126,
   "type": "VEC3",
   "count": 68,
   "bufferView": 28
  },
  {
   "componentType": 5126,
   "type": "VEC2",
   "count": 68,
   "bufferView": 29
  },
  {
   "componentType": 5121,
   "type": "SCALAR",
   "count": 153,
   "bufferView": 30
  }
 ],
 "asset": {
  "version": "2.0",
  "generator": "clara.io"
 },
 "bufferViews": [
  {
   "buffer": 0,
   "byteOffset": 0,
   "byteLength": 2962
  },
  {
   "buffer": 0,
   "byteOffset": 8192,
   "byteLength": 49172
  },
  {
   "buffer": 0,
   "byteOffset": 57364,
   "byteLength": 28372
  },
  {
   "buffer": 0,
   "byteOffset": 85736,
   "byteLength": 1776,
   "target": 34962,
   "byteStride": 12
  },
  {
   "buffer": 0,
   "byteOffset": 87512,
   "byteLength": 1776,
   "target": 34962,
   "byteStride": 12
  },
  {
   "buffer": 0,
   "byteOffset": 89288,
   "byteLength": 1184,
   "target": 34962,
   "byteStride": 8
  },
  {
   "buffer": 0,
   "byteOffset": 90472,
   "byteLength": 288,
   "target": 34963
  },
  {
   "buffer": 0,
   "byteOffset": 90760,
   "byteLength": 1776,
   "target": 34962,
   "byteStride": 12
  },
  {
   "buffer": 0,
   "byteOffset": 92536,
   "byteLength": 1776,
   "target": 34962,
   "byteStride": 12
  },
  {
   "buffer": 0,
   "byteOffset": 94312,
   "byteLength": 1184,
   "target": 34962,
   "byteStride": 8
  },
  {
   "buffer": 0,
   "byteOffset": 95496,
   "byteLength": 288,
   "target": 34963
  },
  {
   "buffer": 0,
   "byteOffset": 95784,
   "byteLength": 1776,
   "target": 34962,
   "byteStride": 12
  },
  {
   "buffer": 0,
   "byteOffset": 97560,
   "byteLength": 1776,
   "target": 34962,
   "byteStride": 12
  },
  {
   "buffer": 0,
   "byteOffset": 99336,
   "byteLength": 1184,
   "target": 34962,
   "byteStride": 8
  },
  {
   "buffer": 0,
   "byteOffset": 100520,
   "byteLength": 288,
   "target": 34963
  },
  {
   "buffer": 0,
   "byteOffset": 100808,
   "byteLength": 1776,
   "target": 34962,
   "byteStride": 12
  },
  {
   "buffer": 0,
   "byteOffset": 102584,
   "byteLength": 1776,
   "target": 34962,
   "byteStride": 12
  },
  {
   "buffer": 0,
   "byteOffset": 104360,
   "byteLength": 1184,
   "target": 34962,
   "byteStride": 8
  },
  {
   "buffer": 0,
   "byteOffset": 105544,
   "byteLength": 288,
   "target": 34963
  },
  {
   "buffer": 0,
   "byteOffset": 105832,
   "byteLength": 288,
   "target": 34962,
   "byteStride": 12
  },
  {
   "buffer": 0,
   "byteOffset": 106120,
   "byteLength": 288,
   "target": 34962,
   "byteStride": 12
  },
  {
   "buffer": 0,
   "byteOffset": 106408,
   "byteLength": 192,
   "target": 34962,
   "byteStride": 8
  },
  {
   "buffer": 0,
   "byteOffset": 106600,
   "byteLength": 36,
   "target": 34963
  },
  {
   "buffer": 0,
   "byteOffset": 106636,
   "byteLength": 288,
   "target": 34962,
   "byteStride": 12
  },
  {
   "buffer": 0,
   "byteOffset": 106924,
   "byteLength": 288,
   "target": 34962,
   "byteStride": 12
  },
  {
   "buffer": 0,
   "byteOffset": 107212,
   "byteLength": 192,
   "target": 34962,
   "byteStride": 8
  },
  {
   "buffer": 0,
   "byteOffset": 107404,
   "byteLength": 36,
   "target": 34963
  },
  {
   "buffer": 0,
   "byteOffset": 107440,
   "byteLength": 816,
   "target": 34962,
   "byteStride": 12
  },
  {
   "buffer": 0,
   "byteOffset": 108256,
   "byteLength": 816,
   "target": 34962,
   "byteStride": 12
  },
  {
   "buffer": 0,
   "byteOffset": 109072,
   "byteLength": 544,
   "target": 34962,
   "byteStride": 8
  },
  {
   "buffer": 0,
   "byteOffset": 109616,
   "byteLength": 153,
   "target": 34963
  }
 ],
 "buffers": [
  {
   "byteLength": 109772,
   "uri": "data:application/octet-stream;base64,"
  }
 ],
 "images": [
  {
   "name": "Black.jpg",
   "bufferView": 0,
   "mimeType": "image/jpeg"
  },
  {
   "name": "red.jpg",
   "bufferView": 1,
   "mimeType": "image/jpeg"
  },
  {
   "name": "pc bullshit.jpg",
   "bufferView": 2,
   "mimeType": "image/jpeg"
  }
 ],
 "materials": [
  {
   "name": "Default-Cylinder",
   "pbrMetallicRoughness": {
    "baseColorFactor": [
     0.6901960784313725,
     0.6901960784313725,
     0.6901960784313725,
     1
    ]
   }
  },
  {
   "name": "Default-Cylinder1",
   "pbrMetallicRoughness": {
    "baseColorFactor": [
     0.6901960784313725,
     0.6901960784313725,
     0.6901960784313725,
     1
    ]
   }
  },
  {
   "name": "Default-Cylinder2",
   "pbrMetallicRoughness": {
    "baseColorFactor": [
     0.6901960784313725,
     0.6901960784313725,
     0.6901960784313725,
     1
    ]
   }
  },
  {
   "name": "Default-Cylinder3",
   "pbrMetallicRoughness": {
    "baseColorFactor": [
     0.6901960784313725,
     0.6901960784313725,
     0.6901960784313725,
     1
    ]
   }
  },
  {
   "name": "Base color",
   "pbrMetallicRoughness": {
    "baseColorFactor": [
     0.6901960784313725,
     0.6901960784313725,
     0.6901960784313725,
     1
    ],
    "baseColorTexture": {
     "index": 0,
     "texCoord": 0
    },
    "roughnessFactor": 0.1961,
    "metallicFactor": 0
   }
  },
  {
   "name": "Standard1",
   "pbrMetallicRoughness": {
    "baseColorFactor": [
     0.6901960784313725,
     0.6901960784313725,
     0.6901960784313725,
     1
    ],
    "baseColorTexture": {
     "index": 2,
     "texCoord": 0
    },
    "roughnessFactor": 0.1961,
    "metallicFactor": 0
   }
  },
  {
   "name": "red",
   "pbrMetallicRoughness": {
    "baseColorFactor": [
     0.7411764705882353,
     0.7411764705882353,
     0.7411764705882353,
     1
    ],
    "baseColorTexture": {
     "index": 1,
     "texCoord": 0
    },
    "roughnessFactor": 0.1961,
    "metallicFactor": 0
   },
   "doubleSided": true
  }
 ],
 "meshes": [
  {
   "primitives": [
    {
     "indices": 3,
     "material": 0,
     "mode": 4,
     "attributes": {
      "POSITION": 0,
      "NORMAL": 1,
      "TEXCOORD_0": 2
     }
    }
   ]
  },
  {
   "primitives": [
    {
     "indices": 7,
     "material": 1,
     "mode": 4,
     "attributes": {
      "POSITION": 4,
      "NORMAL": 5,
      "TEXCOORD_0": 6
     }
    }
   ]
  },
  {
   "primitives": [
    {
     "indices": 11,
     "material": 2,
     "mode": 4,
     "attributes": {
      "POSITION": 8,
      "NORMAL": 9,
      "TEXCOORD_0": 10
     }
    }
   ]
  },
  {
   "primitives": [
    {
     "indices": 15,
     "material": 3,
     "mode": 4,
     "attributes": {
      "POSITION": 12,
      "NORMAL": 13,
      "TEXCOORD_0": 14
     }
    }
   ]
  },
  {
   "primitives": [
    {
     "indices": 19,
     "material": 4,
     "mode": 4,
     "attributes": {
      "POSITION": 16,
      "NORMAL": 17,
      "TEXCOORD_0": 18
     }
    }
   ]
  },
  {
   "primitives": [
    {
     "indices": 23,
     "material": 5,
     "mode": 4,
     "attributes": {
      "POSITION": 20,
      "NORMAL": 21,
      "TEXCOORD_0": 22
     }
    }
   ]
  },
  {
   "primitives": [
    {
     "indices": 27,
     "material": 6,
     "mode": 4,
     "attributes": {
      "POSITION": 24,
      "NORMAL": 25,
      "TEXCOORD_0": 26
     }
    }
   ]
  }
 ],
 "nodes": [
  {
   "name": "Cylinder",
   "translation": [
    2.2265000343322754,
    0.05469999834895134,
    -0.824400007724762
   ],
   "scale": [
    0.31040000915527344,
    0.31040000915527344,
    0.31040000915527344
   ],
   "mesh": 0
  },
  {
   "name": "Cylinder1",
   "translation": [
    -2.1967999935150146,
    0.05999999865889549,
    -0.7785999774932861
   ],
   "scale": [
    0.31040000915527344,
    0.31040000915527344,
    0.31040000915527344
   ],
   "mesh": 1
  },
  {
   "name": "Cylinder2",
   "translation": [
    2.2265000343322754,
    0.05999999865889549,
    0.8122000098228455
   ],
   "scale": [
    0.31040000915527344,
    0.31040000915527344,
    0.31040000915527344
   ],
   "mesh": 2
  },
  {
   "name": "Cylinder3",
   "translation": [
    -2.1967999935150146,
    0.05999999865889549,
    0.8122000098228455
   ],
   "scale": [
    0.31040000915527344,
    0.31040000915527344,
    0.31040000915527344
   ],
   "mesh": 3
  },
  {
   "name": "Box1",
   "translation": [
    0,
    0.593999981880188,
    0
   ],
   "mesh": 4
  },
  {
   "name": "Box3",
   "translation": [
    0.08030000329017639,
    2.3817999362945557,
    0.9301999807357788
   ],
   "mesh": 5
  },
  {
   "name": "PC Case",
   "translation": [
    0,
    0.593999981880188,
    5.522799968719482
   ],
   "scale": [
    9.920499801635742,
    1,
    12.786399841308594
   ]
  },
  {
   "name": "Box2",
   "translation": [
    0,
    2.559999942779541,
    0
   ],
   "mesh": 6
  }
 ],
 "samplers": [
  {
   "magFilter": 9729,
   "minFilter": 9987,
   "wrapS": 10497,
   "wrapT": 10497
  }
 ],
 "scene": 0,
 "scenes": [
  {
   "nodes": [
    0,
    1,
    2,
    3,
    4,
    5,
    6,
    7
   ]
  }
 ],
 "textures": [
  {
   "sampler": 0,
   "source": 0
  },
  {
   "sampler": 0,
   "source": 1
  },
  {
   "sampler": 0,
   "source": 2
  }
 ]
}