{
 "accessors": [
  {
   "componentType": 5126,
   "type": "VEC3",
   "count": 24,
   "max": [
    2,
    0.10000000149011612,
    1.5
   ],
   "min": [
    -2,
    -0.10000000149011612,
    -1.5
   ],
   "bufferView": 2
  },
  {
   "componentType": 5126,
   "type": "VEC3",
   "count": 24,
   "bufferView": 3
  },
  {
   "componentType": 5126,
   "type": "VEC2",
   "count": 24,
   "bufferView": 4
  },
  {
   "componentType": 5121,
   "type": "SCALAR",
   "count": 36,
   "bufferView": 5
  },
  {
   "componentType": 5126,
   "type": "VEC3",
   "count": 148,
   "max": [
    0.20000000298023224,
    1,
    0.20000000298023224
   ],
   "min": [
    -0.20000000298023224,
    -1,
    -0.20000000298023224
   ],
   "bufferView": 6
  },
  {
   "componentType": 5126,
   "type": "VEC3",
   "count": 148,
   "bufferView": 7
  },
  {
   "componentType": 5126,
   "type": "VEC2",
   "count": 148,
   "bufferView": 8
  },
  {
   "componentType": 5121,
   "type": "SCALAR",
   "count": 288,
   "bufferView": 9
  },
  {
   "componentType": 5126,
   "type": "VEC3",
   "count": 42,
   "max": [
    5.5,
    4,
    0.25
   ],
   "min": [
    -5.5,
    -4,
    -0.25
   ],
   "bufferView": 10
  },
  {
   "componentType": 5126,
   "type": "VEC3",
   "count": 42,
   "bufferView": 11
  },
  {
   "componentType": 5126,
   "type": "VEC2",
   "count": 42,
   "bufferView": 12
  },
  {
   "componentType": 5121,
   "type": "SCALAR",
   "count": 84,
   "bufferView": 13
  },
  {
   "componentType": 5121,
   "type": "SCALAR",
   "count": 6,
   "bufferView": 14
  }
 ],
 "asset": {
  "version": "2.0",
  "generator": "clara.io"
 },
 "bufferViews": [
  {
   "buffer": 0,
   "byteOffset": 0,
   "byteLength": 2962
  },
  {
   "buffer": 0,
   "byteOffset": 8192,
   "byteLength": 9042
  },
  {
   "buffer": 0,
   "byteOffset": 17236,
   "byteLength": 288,
   "target": 34962,
   "byteStride": 12
  },
  {
   "buffer": 0,
   "byteOffset": 17524,
   "byteLength": 288,
   "target": 34962,
   "byteStride": 12
  },
  {
   "buffer": 0,
   "byteOffset": 17812,
   "byteLength": 192,
   "target": 34962,
   "byteStride": 8
  },
  {
   "buffer": 0,
   "byteOffset": 18004,
   "byteLength": 36,
   "target": 34963
  },
  {
   "buffer": 0,
   "byteOffset": 18040,
   "byteLength": 1776,
   "target": 34962,
   "byteStride": 12
  },
  {
   "buffer": 0,
   "byteOffset": 19816,
   "byteLength": 1776,
   "target": 34962,
   "byteStride": 12
  },
  {
   "buffer": 0,
   "byteOffset": 21592,
   "byteLength": 1184,
   "target": 34962,
   "byteStride": 8
  },
  {
   "buffer": 0,
   "byteOffset": 22776,
   "byteLength": 288,
   "target": 34963
  },
  {
   "buffer": 0,
   "byteOffset": 23064,
   "byteLength": 504,
   "target": 34962,
   "byteStride": 12
  },
  {
   "buffer": 0,
   "byteOffset": 23568,
   "byteLength": 504,
   "target": 34962,
   "byteStride": 12
  },
  {
   "buffer": 0,
   "byteOffset": 24072,
   "byteLength": 336,
   "target": 34962,
   "byteStride": 8
  },
  {
   "buffer": 0,
   "byteOffset": 24408,
   "byteLength": 84,
   "target": 34963
  },
  {
   "buffer": 0,
   "byteOffset": 24492,
   "byteLength": 6,
   "target": 34963
  }
 ],
 "buffers": [
  {
   "byteLength": 24500,
   "uri": "data:application/octet-stream;base64,"
  }
 ],
 "images": [
  {
   "name": "Black.jpg",
   "bufferView": 0,
   "mimeType": "image/jpeg"
  },
  {
   "name": "sadfg.jpg",
   "bufferView": 1,
   "mimeType": "image/jpeg"
  }
 ],
 "materials": [
  {
   "name": "black",
   "pbrMetallicRoughness": {
    "baseColorFactor": [
     0.6901960784313725,
     0.6901960784313725,
     0.6901960784313725,
     1
    ],
    "baseColorTexture": {
     "index": 0,
     "texCoord": 0
    },
    "roughnessFactor": 0.1961,
    "metallicFactor": 0
   }
  },
  {
   "name": "MultiID",
   "pbrMetallicRoughness": {
    "baseColorFactor": [
     0.43137254901960786,
     0.43137254901960786,
     0.43137254901960786,
     1
    ]
   }
  },
  {
   "name": "Standard",
   "pbrMetallicRoughness": {
    "baseColorFactor": [
     0.6901960784313725,
     0.6901960784313725,
     0.6901960784313725,
     1
    ],
    "baseColorTexture": {
     "index": 1,
     "texCoord": 0
    },
    "roughnessFactor": 0.1961,
    "metallicFactor": 0
   }
  }
 ],
 "meshes": [
  {
   "primitives": [
    {
     "indices": 3,
     "material": 0,
     "mode": 4,
     "attributes": {
      "POSITION": 0,
      "NORMAL": 1,
      "TEXCOORD_0": 2
     }
    }
   ]
  },
  {
   "primitives": [
    {
     "indices": 7,
     "material": 0,
     "mode": 4,
     "attributes": {
      "POSITION": 4,
      "NORMAL": 5,
      "TEXCOORD_0": 6
     }
    }
   ]
  },
  {
   "primitives": [
    {
     "indices": 11,
     "material": 1,
     "mode": 4,
     "attributes": {
      "POSITION": 8,
      "NORMAL": 9,
      "TEXCOORD_0": 10
     }
    },
    {
     "indices": 12,
     "material": 2,
     "mode": 4,
     "attributes": {
      "POSITION": 8,
      "NORMAL": 9,
      "TEXCOORD_0": 10
     }
    }
   ]
  }
 ],
 "nodes": [
  {
   "name": "Group",
   "translation": [
    0.054233334958553314,
    2.4590001106262207,
    0
   ],
   "children": [
    1,
    2,
    3
   ]
  },
  {
   "name": "Box1",
   "translation": [
    -0.054233334958553314,
    -2.2950000762939453,
    0
   ],
   "mesh": 0
  },
  {
   "name": "Cylinder",
   "translation": [
    -0.054233334958553314,
    -1.2635000944137573,
    0
   ],
   "mesh": 1
  },
  {
   "name": "Box",
   "translation": [
    0.10846666246652603,
    3.558499813079834,
    0
   ],
   "mesh": 2
  }
 ],
 "samplers": [
  {
   "magFilter": 9729,
   "minFilter": 9987,
   "wrapS": 10497,
   "wrapT": 10497
  }
 ],
 "scene": 0,
 "scenes": [
  {
   "nodes": [
    0
   ]
  }
 ],
 "textures": [
  {
   "sampler": 0,
   "source": 0
  },
  {
   "sampler": 0,
   "source": 1
  }
 ]
}