{
 "accessors": [
  {
   "componentType": 5126,
   "type": "VEC3",
   "count": 24,
   "max": [
    0.5,
    0.5,
    0.5
   ],
   "min": [
    -0.5,
    -0.5,
    -0.5
   ],
   "bufferView": 1
  },
  {
   "componentType": 5126,
   "type": "VEC3",
   "count": 24,
   "bufferView": 2
  },
  {
   "componentType": 5126,
   "type": "VEC2",
   "count": 24,
   "bufferView": 3
  },
  {
   "componentType": 5121,
   "type": "SCALAR",
   "count": 36,
   "bufferView": 4
  },
  {
   "componentType": 5126,
   "type": "VEC3",
   "count": 24,
   "max": [
    0.5,
    0.5,
    0.5
   ],
   "min": [
    -0.5,
    -0.5,
    -0.5
   ],
   "bufferView": 5
  },
  {
   "componentType": 5126,
   "type": "VEC3",
   "count": 24,
   "bufferView": 6
  },
  {
   "componentType": 5126,
   "type": "VEC2",
   "count": 24,
   "bufferView": 7
  },
  {
   "componentType": 5121,
   "type": "SCALAR",
   "count": 36,
   "bufferView": 8
  },
  {
   "componentType": 5126,
   "type": "VEC3",
   "count": 24,
   "max": [
    0.5,
    0.5,
    0.5
   ],
   "min": [
    -0.5,
    -0.5,
    -0.5
   ],
   "bufferView": 9
  },
  {
   "componentType": 5126,
   "type": "VEC3",
   "count": 24,
   "bufferView": 10
  },
  {
   "componentType": 5126,
   "type": "VEC2",
   "count": 24,
   "bufferView": 11
  },
  {
   "componentType": 5121,
   "type": "SCALAR",
   "count": 36,
   "bufferView": 12
  },
  {
   "componentType": 5126,
   "type": "VEC3",
   "count": 24,
   "max": [
    0.5,
    0.5,
    0.5
   ],
   "min": [
    -0.5,
    -0.5,
    -0.5
   ],
   "bufferView": 13
  },
  {
   "componentType": 5126,
   "type": "VEC3",
   "count": 24,
   "bufferView": 14
  },
  {
   "componentType": 5126,
   "type": "VEC2",
   "count": 24,
   "bufferView": 15
  },
  {
   "componentType": 5121,
   "type": "SCALAR",
   "count": 36,
   "bufferView": 16
  },
  {
   "componentType": 5126,
   "type": "VEC3",
   "count": 148,
   "max": [
    0.5,
    0.5,
    0.5
   ],
   "min": [
    -0.5,
    -0.5,
    -0.5
   ],
   "bufferView": 17
  },
  {
   "componentType": 5126,
   "type": "VEC3",
   "count": 148,
   "bufferView": 18
  },
  {
   "componentType": 5126,
   "type": "VEC2",
   "count": 148,
   "bufferView": 19
  },
  {
   "componentType": 5121,
   "type": "SCALAR",
   "count": 288,
   "bufferView": 20
  },
  {
   "componentType": 5126,
   "type": "VEC3",
   "count": 148,
   "max": [
    0.5,
    0.5,
    0.5
   ],
   "min": [
    -0.5,
    -0.5,
    -0.5
   ],
   "bufferView": 21
  },
  {
   "componentType": 5126,
   "type": "VEC3",
   "count": 148,
   "bufferView": 22
  },
  {
   "componentType": 5126,
   "type": "VEC2",
   "count": 148,
   "bufferView": 23
  },
  {
   "componentType": 5121,
   "type": "SCALAR",
   "count": 288,
   "bufferView": 24
  },
  {
   "componentType": 5126,
   "type": "VEC3",
   "count": 148,
   "max": [
    0.5,
    0.5,
    0.5
   ],
   "min": [
    -0.5,
    -0.5,
    -0.5
   ],
   "bufferView": 25
  },
  {
   "componentType": 5126,
   "type": "VEC3",
   "count": 148,
   "bufferView": 26
  },
  {
   "componentType": 5126,
   "type": "VEC2",
   "count": 148,
   "bufferView": 27
  },
  {
   "componentType": 5121,
   "type": "SCALAR",
   "count": 288,
   "bufferView": 28
  },
  {
   "componentType": 5126,
   "type": "VEC3",
   "count": 148,
   "max": [
    0.5,
    0.5,
    0.5
   ],
   "min": [
    -0.5,
    -0.5,
    -0.5
   ],
   "bufferView": 29
  },
  {
   "componentType": 5126,
   "type": "VEC3",
   "count": 148,
   "bufferView": 30
  },
  {
   "componentType": 5126,
   "type": "VEC2",
   "count": 148,
   "bufferView": 31
  },
  {
   "componentType": 5121,
   "type": "SCALAR",
   "count": 288,
   "bufferView": 32
  },
  {
   "componentType": 5126,
   "type": "VEC3",
   "count": 148,
   "max": [
    0.5,
    0.5,
    0.5
   ],
   "min": [
    -0.5,
    -0.5,
    -0.5
   ],
   "bufferView": 33
  },
  {
   "componentType": 5126,
   "type": "VEC3",
   "count": 148,
   "bufferView": 34
  },
  {
   "componentType": 5126,
   "type": "VEC2",
   "count": 148,
   "bufferView": 35
  },
  {
   "componentType": 5121,
   "type": "SCALAR",
   "count": 288,
   "bufferView": 36
  },
  {
   "componentType": 5126,
   "type": "VEC3",
   "count": 384,
   "max": [
    0.5,
    0.5,
    0.5
   ],
   "min": [
    -0.5,
    -0.5,
    -0.5
   ],
   "bufferView": 37
  },
  {
   "componentType": 5126,
   "type": "VEC3",
   "count": 384,
   "bufferView": 38
  },
  {
   "componentType": 5126,
   "type": "VEC2",
   "count": 384,
   "bufferView": 39
  },
  {
   "componentType": 5123,
   "type": "SCALAR",
   "count": 576,
   "bufferView": 40
  },
  {
   "componentType": 5126,
   "type": "VEC3",
   "count": 384,
   "max": [
    0.5,
    0.5,
    0.5
   ],
   "min": [
    -0.5,
    -0.5,
    -0.5
   ],
   "bufferView": 41
  },
  {
   "componentType": 5126,
   "type": "VEC3",
   "count": 384,
   "bufferView": 42
  },
  {
   "componentType": 5126,
   "type": "VEC2",
   "count": 384,
   "bufferView": 43
  },
  {
   "componentType": 5123,
   "type": "SCALAR",
   "count": 576,
   "bufferView": 44
  },
  {
   "componentType": 5126,
   "type": "VEC3",
   "count": 384,
   "max": [
    0.5,
    0.5,
    0.5
   ],
   "min": [
    -0.5,
    -0.5,
    -0.5
   ],
   "bufferView": 45
  },
  {
   "componentType": 5126,
   "type": "VEC3",
   "count": 384,
   "bufferView": 46
  },
  {
   "componentType": 5126,
   "type": "VEC2",
   "count": 384,
   "bufferView": 47
  },
  {
   "componentType": 5123,
   "type": "SCALAR",
   "count": 576,
   "bufferView": 48
  },
  {
   "componentType": 5126,
   "type": "VEC3",
   "count": 128,
   "max": [
    0.5,
    0.5,
    0.5
   ],
   "min": [
    -0.5,
    -0.5,
    -0.5
   ],
   "bufferView": 49
  },
  {
   "componentType": 5126,
   "type": "VEC3",
   "count": 128,
   "bufferView": 50
  },
  {
   "componentType": 5126,
   "type": "VEC2",
   "count": 128,
   "bufferView": 51
  },
  {
   "componentType": 5121,
   "type": "SCALAR",
   "count": 192,
   "bufferView": 52
  },
  {
   "componentType": 5126,
   "type": "VEC3",
   "count": 68,
   "max": [
    0.5,
    0.5,
    0.5210791230201721
   ],
   "min": [
    -0.5,
    -0.5,
    -0.5
   ],
   "bufferView": 53
  },
  {
   "componentType": 5126,
   "type": "VEC3",
   "count": 68,
   "bufferView": 54
  },
  {
   "componentType": 5126,
   "type": "VEC2",
   "count": 68,
   "bufferView": 55
  },
  {
   "componentType": 5121,
   "type": "SCALAR",
   "count": 108,
   "bufferView": 56
  }
 ],
 "asset": {
  "version": "2.0",
  "generator": "clara.io"
 },
 "bufferViews": [
  {
   "buffer": 0,
   "byteOffset": 0,
   "byteLength": 230971
  },
  {
   "buffer": 0,
   "byteOffset": 230972,
   "byteLength": 288,
   "target": 34962,
   "byteStride": 12
  },
  {
   "buffer": 0,
   "byteOffset": 231260,
   "byteLength": 288,
   "target": 34962,
   "byteStride": 12
  },
  {
   "buffer": 0,
   "byteOffset": 231548,
   "byteLength": 192,
   "target": 34962,
   "byteStride": 8
  },
  {
   "buffer": 0,
   "byteOffset": 231740,
   "byteLength": 36,
   "target": 34963
  },
  {
   "buffer": 0,
   "byteOffset": 231776,
   "byteLength": 288,
   "target": 34962,
   "byteStride": 12
  },
  {
   "buffer": 0,
   "byteOffset": 232064,
   "byteLength": 288,
   "target": 34962,
   "byteStride": 12
  },
  {
   "buffer": 0,
   "byteOffset": 232352,
   "byteLength": 192,
   "target": 34962,
   "byteStride": 8
  },
  {
   "buffer": 0,
   "byteOffset": 232544,
   "byteLength": 36,
   "target": 34963
  },
  {
   "buffer": 0,
   "byteOffset": 232580,
   "byteLength": 288,
   "target": 34962,
   "byteStride": 12
  },
  {
   "buffer": 0,
   "byteOffset": 232868,
   "byteLength": 288,
   "target": 34962,
   "byteStride": 12
  },
  {
   "buffer": 0,
   "byteOffset": 233156,
   "byteLength": 192,
   "target": 34962,
   "byteStride": 8
  },
  {
   "buffer": 0,
   "byteOffset": 233348,
   "byteLength": 36,
   "target": 34963
  },
  {
   "buffer": 0,
   "byteOffset": 233384,
   "byteLength": 288,
   "target": 34962,
   "byteStride": 12
  },
  {
   "buffer": 0,
   "byteOffset": 233672,
   "byteLength": 288,
   "target": 34962,
   "byteStride": 12
  },
  {
   "buffer": 0,
   "byteOffset": 233960,
   "byteLength": 192,
   "target": 34962,
   "byteStride": 8
  },
  {
   "buffer": 0,
   "byteOffset": 234152,
   "byteLength": 36,
   "target": 34963
  },
  {
   "buffer": 0,
   "byteOffset": 234188,
   "byteLength": 1776,
   "target": 34962,
   "byteStride": 12
  },
  {
   "buffer": 0,
   "byteOffset": 235964,
   "byteLength": 1776,
   "target": 34962,
   "byteStride": 12
  },
  {
   "buffer": 0,
   "byteOffset": 237740,
   "byteLength": 1184,
   "target": 34962,
   "byteStride": 8
  },
  {
   "buffer": 0,
   "byteOffset": 238924,
   "byteLength": 288,
   "target": 34963
  },
  {
   "buffer": 0,
   "byteOffset": 239212,
   "byteLength": 1776,
   "target": 34962,
   "byteStride": 12
  },
  {
   "buffer": 0,
   "byteOffset": 240988,
   "byteLength": 1776,
   "target": 34962,
   "byteStride": 12
  },
  {
   "buffer": 0,
   "byteOffset": 242764,
   "byteLength": 1184,
   "target": 34962,
   "byteStride": 8
  },
  {
   "buffer": 0,
   "byteOffset": 243948,
   "byteLength": 288,
   "target": 34963
  },
  {
   "buffer": 0,
   "byteOffset": 244236,
   "byteLength": 1776,
   "target": 34962,
   "byteStride": 12
  },
  {
   "buffer": 0,
   "byteOffset": 246012,
   "byteLength": 1776,
   "target": 34962,
   "byteStride": 12
  },
  {
   "buffer": 0,
   "byteOffset": 247788,
   "byteLength": 1184,
   "target": 34962,
   "byteStride": 8
  },
  {
   "buffer": 0,
   "byteOffset": 248972,
   "byteLength": 288,
   "target": 34963
  },
  {
   "buffer": 0,
   "byteOffset": 249260,
   "byteLength": 1776,
   "target": 34962,
   "byteStride": 12
  },
  {
   "buffer": 0,
   "byteOffset": 251036,
   "byteLength": 1776,
   "target": 34962,
   "byteStride": 12
  },
  {
   "buffer": 0,
   "byteOffset": 252812,
   "byteLength": 1184,
   "target": 34962,
   "byteStride": 8
  },
  {
   "buffer": 0,
   "byteOffset": 253996,
   "byteLength": 288,
   "target": 34963
  },
  {
   "buffer": 0,
   "byteOffset": 254284,
   "byteLength": 1776,
   "target": 34962,
   "byteStride": 12
  },
  {
   "buffer": 0,
   "byteOffset": 256060,
   "byteLength": 1776,
   "target": 34962,
   "byteStride": 12
  },
  {
   "buffer": 0,
   "byteOffset": 257836,
   "byteLength": 1184,
   "target": 34962,
   "byteStride": 8
  },
  {
   "buffer": 0,
   "byteOffset": 259020,
   "byteLength": 288,
   "target": 34963
  },
  {
   "buffer": 0,
   "byteOffset": 259308,
   "byteLength": 4608,
   "target": 34962,
   "byteStride": 12
  },
  {
   "buffer": 0,
   "byteOffset": 263916,
   "byteLength": 4608,
   "target": 34962,
   "byteStride": 12
  },
  {
   "buffer": 0,
   "byteOffset": 268524,
   "byteLength": 3072,
   "target": 34962,
   "byteStride": 8
  },
  {
   "buffer": 0,
   "byteOffset": 271596,
   "byteLength": 1152,
   "target": 34963
  },
  {
   "buffer": 0,
   "byteOffset": 272748,
   "byteLength": 4608,
   "target": 34962,
   "byteStride": 12
  },
  {
   "buffer": 0,
   "byteOffset": 277356,
   "byteLength": 4608,
   "target": 34962,
   "byteStride": 12
  },
  {
   "buffer": 0,
   "byteOffset": 281964,
   "byteLength": 3072,
   "target": 34962,
   "byteStride": 8
  },
  {
   "buffer": 0,
   "byteOffset": 285036,
   "byteLength": 1152,
   "target": 34963
  },
  {
   "buffer": 0,
   "byteOffset": 286188,
   "byteLength": 4608,
   "target": 34962,
   "byteStride": 12
  },
  {
   "buffer": 0,
   "byteOffset": 290796,
   "byteLength": 4608,
   "target": 34962,
   "byteStride": 12
  },
  {
   "buffer": 0,
   "byteOffset": 295404,
   "byteLength": 3072,
   "target": 34962,
   "byteStride": 8
  },
  {
   "buffer": 0,
   "byteOffset": 298476,
   "byteLength": 1152,
   "target": 34963
  },
  {
   "buffer": 0,
   "byteOffset": 299628,
   "byteLength": 1536,
   "target": 34962,
   "byteStride": 12
  },
  {
   "buffer": 0,
   "byteOffset": 301164,
   "byteLength": 1536,
   "target": 34962,
   "byteStride": 12
  },
  {
   "buffer": 0,
   "byteOffset": 302700,
   "byteLength": 1024,
   "target": 34962,
   "byteStride": 8
  },
  {
   "buffer": 0,
   "byteOffset": 303724,
   "byteLength": 192,
   "target": 34963
  },
  {
   "buffer": 0,
   "byteOffset": 303916,
   "byteLength": 816,
   "target": 34962,
   "byteStride": 12
  },
  {
   "buffer": 0,
   "byteOffset": 304732,
   "byteLength": 816,
   "target": 34962,
   "byteStride": 12
  },
  {
   "buffer": 0,
   "byteOffset": 305548,
   "byteLength": 544,
   "target": 34962,
   "byteStride": 8
  },
  {
   "buffer": 0,
   "byteOffset": 306092,
   "byteLength": 108,
   "target": 34963
  }
 ],
 "buffers": [
  {
   "byteLength": 306200,
   "uri": "data:application/octet-stream;base64,"
  }
 ],
 "images": [
  {
   "name": "Expanded Metal - Alpha.png",
   "bufferView": 0,
   "mimeType": "image/png"
  }
 ],
 "materials": [
  {
   "name": "Default-Box1",
   "pbrMetallicRoughness": {
    "baseColorFactor": [
     0.6901960784313725,
     0.6901960784313725,
     0.6901960784313725,
     1
    ]
   }
  },
  {
   "name": "Default-Box2",
   "pbrMetallicRoughness": {
    "baseColorFactor": [
     0.6901960784313725,
     0.6901960784313725,
     0.6901960784313725,
     1
    ]
   }
  },
  {
   "name": "Default-Box3",
   "pbrMetallicRoughness": {
    "baseColorFactor": [
     0.6901960784313725,
     0.6901960784313725,
     0.6901960784313725,
     1
    ]
   }
  },
  {
   "name": "Default-Box4",
   "pbrMetallicRoughness": {
    "baseColorFactor": [
     0.6901960784313725,
     0.6901960784313725,
     0.6901960784313725,
     1
    ]
   }
  },
  {
   "name": "Default-Cylinder2",
   "pbrMetallicRoughness": {
    "baseColorFactor": [
     0.6901960784313725,
     0.6901960784313725,
     0.6901960784313725,
     1
    ]
   }
  },
  {
   "name": "Default-Cylinder4",
   "pbrMetallicRoughness": {
    "baseColorFactor": [
     0.6901960784313725,
     0.6901960784313725,
     0.6901960784313725,
     1
    ]
   }
  },
  {
   "name": "Default-Cylinder5",
   "pbrMetallicRoughness": {
    "baseColorFactor": [
     0.6901960784313725,
     0.6901960784313725,
     0.6901960784313725,
     1
    ]
   }
  },
  {
   "name": "Default-Cylinder6",
   "pbrMetallicRoughness": {
    "baseColorFactor": [
     0.6901960784313725,
     0.6901960784313725,
     0.6901960784313725,
     1
    ]
   }
  },
  {
   "name": "Expanded Metal - AlphaMaterial",
   "pbrMetallicRoughness": {
    "baseColorFactor": [
     0.6901960784313725,
     0.6901960784313725,
     0.6901960784313725,
     1
    ],
    "baseColorTexture": {
     "index": 0,
     "texCoord": 0
    },
    "roughnessFactor": 0.25,
    "metallicFactor": 0
   },
   "alphaMode": "BLEND"
  },
  {
   "name": "Default-Cylinder",
   "pbrMetallicRoughness": {
    "baseColorFactor": [
     0.6901960784313725,
     0.6901960784313725,
     0.6901960784313725,
     1
    ]
   }
  },
  {
   "name": "Default-Cylinder1",
   "pbrMetallicRoughness": {
    "baseColorFactor": [
     0.6901960784313725,
     0.6901960784313725,
     0.6901960784313725,
     1
    ]
   }
  },
  {
   "name": "Default-Cylinder3",
   "pbrMetallicRoughness": {
    "baseColorFactor": [
     0.6901960784313725,
     0.6901960784313725,
     0.6901960784313725,
     1
    ]
   }
  },
  {
   "name": "Default-Box",
   "pbrMetallicRoughness": {
    "baseColorFactor": [
     0.6901960784313725,
     0.6901960784313725,
     0.6901960784313725,
     1
    ]
   }
  },
  {
   "name": "Default-Box5",
   "pbrMetallicRoughness": {
    "baseColorFactor": [
     0.6901960784313725,
     0.6901960784313725,
     0.6901960784313725,
     1
    ]
   }
  }
 ],
 "meshes": [
  {
   "primitives": [
    {
     "indices": 3,
     "material": 0,
     "mode": 4,
     "attributes": {
      "POSITION": 0,
      "NORMAL": 1,
      "TEXCOORD_0": 2
     }
    }
   ]
  },
  {
   "primitives": [
    {
     "indices": 7,
     "material": 1,
     "mode": 4,
     "attributes": {
      "POSITION": 4,
      "NORMAL": 5,
      "TEXCOORD_0": 6
     }
    }
   ]
  },
  {
   "primitives": [
    {
     "indices": 11,
     "material": 2,
     "mode": 4,
     "attributes": {
      "POSITION": 8,
      "NORMAL": 9,
      "TEXCOORD_0": 10
     }
    }
   ]
  },
  {
   "primitives": [
    {
     "indices": 15,
     "material": 3,
     "mode": 4,
     "attributes": {
      "POSITION": 12,
      "NORMAL": 13,
      "TEXCOORD_0": 14
     }
    }
   ]
  },
  {
   "primitives": [
    {
     "indices": 19,
     "material": 4,
     "mode": 4,
     "attributes": {
      "POSITION": 16,
      "NORMAL": 17,
      "TEXCOORD_0": 18
     }
    }
   ]
  },
  {
   "primitives": [
    {
     "indices": 23,
     "material": 5,
     "mode": 4,
     "attributes": {
      "POSITION": 20,
      "NORMAL": 21,
      "TEXCOORD_0": 22
     }
    }
   ]
  },
  {
   "primitives": [
    {
     "indices": 27,
     "material": 6,
     "mode": 4,
     "attributes": {
      "POSITION": 24,
      "NORMAL": 25,
      "TEXCOORD_0": 26
     }
    }
   ]
  },
  {
   "primitives": [
    {
     "indices": 31,
     "material": 7,
     "mode": 4,
     "attributes": {
      "POSITION": 28,
      "NORMAL": 29,
      "TEXCOORD_0": 30
     }
    }
   ]
  },
  {
   "primitives": [
    {
     "indices": 35,
     "material": 8,
     "mode": 4,
     "attributes": {
      "POSITION": 32,
      "NORMAL": 33,
      "TEXCOORD_0": 34
     }
    }
   ]
  },
  {
   "primitives": [
    {
     "indices": 39,
     "material": 9,
     "mode": 4,
     "attributes": {
      "POSITION": 36,
      "NORMAL": 37,
      "TEXCOORD_0": 38
     }
    }
   ]
  },
  {
   "primitives": [
    {
     "indices": 43,
     "material": 10,
     "mode": 4,
     "attributes": {
      "POSITION": 40,
      "NORMAL": 41,
      "TEXCOORD_0": 42
     }
    }
   ]
  },
  {
   "primitives": [
    {
     "indices": 47,
     "material": 11,
     "mode": 4,
     "attributes": {
      "POSITION": 44,
      "NORMAL": 45,
      "TEXCOORD_0": 46
     }
    }
   ]
  },
  {
   "primitives": [
    {
     "indices": 51,
     "material": 12,
     "mode": 4,
     "attributes": {
      "POSITION": 48,
      "NORMAL": 49,
      "TEXCOORD_0": 50
     }
    }
   ]
  },
  {
   "primitives": [
    {
     "indices": 55,
     "material": 13,
     "mode": 4,
     "attributes": {
      "POSITION": 52,
      "NORMAL": 53,
      "TEXCOORD_0": 54
     }
    }
   ]
  }
 ],
 "nodes": [
  {
   "name": "Box1",
   "translation": [
    0.4099999964237213,
    0.30000001192092896,
    0
   ],
   "rotation": [
    0.19509032787529318,
    0,
    0,
    0.9807852731877136
   ],
   "scale": [
    0.019999999552965164,
    0.5499999706371043,
    0.029999999212805863
   ],
   "mesh": 0
  },
  {
   "name": "Box2",
   "translation": [
    0.4099999964237213,
    0.30000001192092896,
    0
   ],
   "rotation": [
    0.5555702142536404,
    0,
    0,
    0.8314696149117237
   ],
   "scale": [
    0.019999999552965164,
    0.5499999706371043,
    0.029999999212805863
   ],
   "mesh": 1
  },
  {
   "name": "Box3",
   "translation": [
    0.4099999964237213,
    0.30000001192092896,
    0
   ],
   "rotation": [
    0.8314695926705898,
    0,
    0,
    0.5555702291146908
   ],
   "scale": [
    0.019999999552965164,
    0.5499999706371043,
    0.029999999212805863
   ],
   "mesh": 2
  },
  {
   "name": "Box4",
   "translation": [
    0.4099999964237213,
    0.30000001192092896,
    0
   ],
   "rotation": [
    0.9807852731877137,
    0,
    0,
    0.19509032787529318
   ],
   "scale": [
    0.019999999552965164,
    0.5499999706371043,
    0.029999999212805863
   ],
   "mesh": 3
  },
  {
   "name": "Cylinder2",
   "translation": [
    0.4099999964237213,
    0.30000001192092896,
    0
   ],
   "rotation": [
    0,
    0,
    0.7071067811865475,
    0.7071067811865476
   ],
   "scale": [
    0.30000001192092896,
    0.019999999552965164,
    0.30000001192092896
   ],
   "mesh": 4
  },
  {
   "name": "Cylinder4",
   "translation": [
    0.4699999988079071,
    0.30000001192092896,
    0
   ],
   "rotation": [
    0,
    0,
    0.7071067811865475,
    0.7071067811865476
   ],
   "scale": [
    0.10000000149011612,
    0.10000000149011612,
    0.10000000149011612
   ],
   "mesh": 5
  },
  {
   "name": "Cylinder5",
   "translation": [
    0.10000000149011612,
    0.30000001192092896,
    0
   ],
   "rotation": [
    0,
    0,
    0.7071067811865475,
    0.7071067811865476
   ],
   "scale": [
    0.07999999821186066,
    1,
    0.07999999821186066
   ],
   "mesh": 6
  },
  {
   "name": "Cylinder6",
   "translation": [
    -0.38999998569488525,
    0.30000001192092896,
    0
   ],
   "rotation": [
    0,
    0,
    0.7071067811865475,
    0.7071067811865476
   ],
   "scale": [
    0.6000000238418579,
    0.019999999552965164,
    0.6000000238418579
   ],
   "mesh": 7
  },
  {
   "name": "Cylinder7",
   "translation": [
    0.4099999964237213,
    0.30000001192092896,
    0
   ],
   "rotation": [
    0,
    0,
    0.7071067811865475,
    0.7071067811865476
   ],
   "scale": [
    0.5,
    0.009999999776482582,
    0.5
   ],
   "mesh": 8
  },
  {
   "name": "Cylinder",
   "translation": [
    0,
    0.30000001192092896,
    0
   ],
   "rotation": [
    0,
    0,
    0.7071067811865475,
    0.7071067811865476
   ],
   "scale": [
    0.6000000238418579,
    0.800000011920929,
    0.6000000238418579
   ],
   "mesh": 9
  },
  {
   "name": "Cylinder1",
   "translation": [
    0.4099999964237213,
    0.30000001192092896,
    0
   ],
   "rotation": [
    0,
    0,
    0.7071067811865475,
    0.7071067811865476
   ],
   "scale": [
    0.5799999833106995,
    0.019999999552965164,
    0.5799999833106995
   ],
   "mesh": 10
  },
  {
   "name": "Cylinder3",
   "translation": [
    0.46000000834465027,
    0.30000001192092896,
    0
   ],
   "rotation": [
    0,
    0,
    0.7071067811865475,
    0.7071067811865476
   ],
   "scale": [
    0.20000000298023224,
    0.07999999821186066,
    0.20000000298023224
   ],
   "mesh": 11
  },
  {
   "name": "Box",
   "translation": [
    0,
    0.30000001192092896,
    0
   ],
   "scale": [
    0.800000011920929,
    0.6000000238418579,
    0.6000000238418579
   ],
   "mesh": 12
  },
  {
   "name": "Box5",
   "translation": [
    -0.10000000149011612,
    0.489300012588501,
    -0.3066999912261963
   ],
   "scale": [
    0.5,
    0.10000000149011612,
    0.23420000076293945
   ],
   "mesh": 13
  }
 ],
 "samplers": [
  {
   "magFilter": 9729,
   "minFilter": 9987,
   "wrapS": 10497,
   "wrapT": 10497
  }
 ],
 "scene": 0,
 "scenes": [
  {
   "nodes": [
    0,
    1,
    2,
    3,
    4,
    5,
    6,
    7,
    8,
    9,
    10,
    11,
    12,
    13
   ]
  }
 ],
 "textures": [
  {
   "sampler": 0,
   "source": 0
  }
 ]
}